<svg viewBox="0 0 680 680" fill="none" xmlns="http://www.w3.org/2000/svg" style="width:100%;background:black;"><defs><rect id="square" width="36" height="36" stroke="#000000"></rect><g id="row"><use href="#square" x="196" y="160"/><use href="#square" x="232" y="160"/><use href="#square" x="268" y="160"/><use href="#square" x="304" y="160"/><use href="#square" x="340" y="160"/><use href="#square" x="376" y="160"/><use href="#square" x="412" y="160"/><use href="#square" x="448" y="160"/></g></defs><rect width="680" height="680" fill="black"/><rect x="188" y="152" width="304" height="376" fill="#000000"/><g id="grid" x="196" y="160"><use href="#row" y="0"/><use href="#row" y="36"/><use href="#row" y="72"/><use href="#row" y="108"/><use href="#row" y="144"/><use href="#row" y="180"/><use href="#row" y="216"/><use href="#row" y="252"/><use href="#row" y="288"/><use href="#row" y="324"/></g><g transform="translate(196, 160)"><g transform="translate(3, 3) scale(0.528)"><path d="M25 43.77c2.12 0 6.68 6.9 8.68 6.17 1.99-.74 1.11-9 2.74-10.39 1.62-1.38 9.5-.93 10.55-.93 1.06 0-4.85-7.62-4.48-9.74.37-2.12 7.87-5.49 7.5-7.6-.37-2.12-8.54-2.68-9.6-4.54-1.06-1.86 2.55-9.33.93-10.72-1.62-1.38-8.24 3.53-10.23 2.79C29.08 8.07 27.12 0 25 0s-4.08 8.07-6.07 8.81c-1.99.74-8.61-4.17-10.23-2.79-1.62 1.38 1.98 8.85.93 10.72-1.06 1.86-9.24 2.42-9.6 4.54-.37 2.12 7.13 5.49 7.5 7.6.37 2.12-5.54 9.74-4.48 9.74 1.06 0 8.93-.45 10.55.93 1.62 1.38.75 9.65 2.74 10.39 1.99.74 6.56-6.17 8.68-6.17h-.01z" fill="#780209"/><path d="M25 15.12L15.41 24.34l2.86 2.73 4.68-4.53.005 12.36h4.14V22.54l4.7 4.53 2.8-2.73L25.08 15.12H25z" fill="black"/></g></g><g transform="translate(232, 160)"><g transform="translate(3, 3) scale(0.528)"><path d="M25 43.77c2.12 0 6.68 6.9 8.68 6.17 1.99-.74 1.11-9 2.74-10.39 1.62-1.38 9.5-.93 10.55-.93 1.06 0-4.85-7.62-4.48-9.74.37-2.12 7.87-5.49 7.5-7.6-.37-2.12-8.54-2.68-9.6-4.54-1.06-1.86 2.55-9.33.93-10.72-1.62-1.38-8.24 3.53-10.23 2.79C29.08 8.07 27.12 0 25 0s-4.08 8.07-6.07 8.81c-1.99.74-8.61-4.17-10.23-2.79-1.62 1.38 1.98 8.85.93 10.72-1.06 1.86-9.24 2.42-9.6 4.54-.37 2.12 7.13 5.49 7.5 7.6.37 2.12-5.54 9.74-4.48 9.74 1.06 0 8.93-.45 10.55.93 1.62 1.38.75 9.65 2.74 10.39 1.99.74 6.56-6.17 8.68-6.17h-.01z" fill="#780209"/><path d="M25 15.12L15.41 24.34l2.86 2.73 4.68-4.53.005 12.36h4.14V22.54l4.7 4.53 2.8-2.73L25.08 15.12H25z" fill="black"/></g></g><g transform="translate(268, 160)"><g transform="translate(3, 3) scale(0.528)"><path d="M25 43.77c2.12 0 6.68 6.9 8.68 6.17 1.99-.74 1.11-9 2.74-10.39 1.62-1.38 9.5-.93 10.55-.93 1.06 0-4.85-7.62-4.48-9.74.37-2.12 7.87-5.49 7.5-7.6-.37-2.12-8.54-2.68-9.6-4.54-1.06-1.86 2.55-9.33.93-10.72-1.62-1.38-8.24 3.53-10.23 2.79C29.08 8.07 27.12 0 25 0s-4.08 8.07-6.07 8.81c-1.99.74-8.61-4.17-10.23-2.79-1.62 1.38 1.98 8.85.93 10.72-1.06 1.86-9.24 2.42-9.6 4.54-.37 2.12 7.13 5.49 7.5 7.6.37 2.12-5.54 9.74-4.48 9.74 1.06 0 8.93-.45 10.55.93 1.62 1.38.75 9.65 2.74 10.39 1.99.74 6.56-6.17 8.68-6.17h-.01z" fill="#A18CFF"/><path d="M25 15.12L15.41 24.34l2.86 2.73 4.68-4.53.005 12.36h4.14V22.54l4.7 4.53 2.8-2.73L25.08 15.12H25z" fill="black"/></g></g><g transform="translate(304, 160)"><g transform="translate(3, 3) scale(0.528)"><path d="M25 43.77c2.12 0 6.68 6.9 8.68 6.17 1.99-.74 1.11-9 2.74-10.39 1.62-1.38 9.5-.93 10.55-.93 1.06 0-4.85-7.62-4.48-9.74.37-2.12 7.87-5.49 7.5-7.6-.37-2.12-8.54-2.68-9.6-4.54-1.06-1.86 2.55-9.33.93-10.72-1.62-1.38-8.24 3.53-10.23 2.79C29.08 8.07 27.12 0 25 0s-4.08 8.07-6.07 8.81c-1.99.74-8.61-4.17-10.23-2.79-1.62 1.38 1.98 8.85.93 10.72-1.06 1.86-9.24 2.42-9.6 4.54-.37 2.12 7.13 5.49 7.5 7.6.37 2.12-5.54 9.74-4.48 9.74 1.06 0 8.93-.45 10.55.93 1.62 1.38.75 9.65 2.74 10.39 1.99.74 6.56-6.17 8.68-6.17h-.01z" fill="#A5FF45"/><path d="M25 15.12L15.41 24.34l2.86 2.73 4.68-4.53.005 12.36h4.14V22.54l4.7 4.53 2.8-2.73L25.08 15.12H25z" fill="black"/></g></g><g transform="translate(340, 160)"><g transform="translate(3, 3) scale(0.528)"><path d="M25 43.77c2.12 0 6.68 6.9 8.68 6.17 1.99-.74 1.11-9 2.74-10.39 1.62-1.38 9.5-.93 10.55-.93 1.06 0-4.85-7.62-4.48-9.74.37-2.12 7.87-5.49 7.5-7.6-.37-2.12-8.54-2.68-9.6-4.54-1.06-1.86 2.55-9.33.93-10.72-1.62-1.38-8.24 3.53-10.23 2.79C29.08 8.07 27.12 0 25 0s-4.08 8.07-6.07 8.81c-1.99.74-8.61-4.17-10.23-2.79-1.62 1.38 1.98 8.85.93 10.72-1.06 1.86-9.24 2.42-9.6 4.54-.37 2.12 7.13 5.49 7.5 7.6.37 2.12-5.54 9.74-4.48 9.74 1.06 0 8.93-.45 10.55.93 1.62 1.38.75 9.65 2.74 10.39 1.99.74 6.56-6.17 8.68-6.17h-.01z" fill="#E77AFF"/><path d="M25 15.12L15.41 24.34l2.86 2.73 4.68-4.53.005 12.36h4.14V22.54l4.7 4.53 2.8-2.73L25.08 15.12H25z" fill="black"/></g></g><g transform="translate(376, 160)"><g transform="translate(3, 3) scale(0.528)"><path d="M25 43.77c2.12 0 6.68 6.9 8.68 6.17 1.99-.74 1.11-9 2.74-10.39 1.62-1.38 9.5-.93 10.55-.93 1.06 0-4.85-7.62-4.48-9.74.37-2.12 7.87-5.49 7.5-7.6-.37-2.12-8.54-2.68-9.6-4.54-1.06-1.86 2.55-9.33.93-10.72-1.62-1.38-8.24 3.53-10.23 2.79C29.08 8.07 27.12 0 25 0s-4.08 8.07-6.07 8.81c-1.99.74-8.61-4.17-10.23-2.79-1.62 1.38 1.98 8.85.93 10.72-1.06 1.86-9.24 2.42-9.6 4.54-.37 2.12 7.13 5.49 7.5 7.6.37 2.12-5.54 9.74-4.48 9.74 1.06 0 8.93-.45 10.55.93 1.62 1.38.75 9.65 2.74 10.39 1.99.74 6.56-6.17 8.68-6.17h-.01z" fill="#029F0E"/><path d="M25 15.12L15.41 24.34l2.86 2.73 4.68-4.53.005 12.36h4.14V22.54l4.7 4.53 2.8-2.73L25.08 15.12H25z" fill="black"/></g></g><g transform="translate(412, 160)"><g transform="translate(3, 3) scale(0.528)"><path d="M25 43.77c2.12 0 6.68 6.9 8.68 6.17 1.99-.74 1.11-9 2.74-10.39 1.62-1.38 9.5-.93 10.55-.93 1.06 0-4.85-7.62-4.48-9.74.37-2.12 7.87-5.49 7.5-7.6-.37-2.12-8.54-2.68-9.6-4.54-1.06-1.86 2.55-9.33.93-10.72-1.62-1.38-8.24 3.53-10.23 2.79C29.08 8.07 27.12 0 25 0s-4.08 8.07-6.07 8.81c-1.99.74-8.61-4.17-10.23-2.79-1.62 1.38 1.98 8.85.93 10.72-1.06 1.86-9.24 2.42-9.6 4.54-.37 2.12 7.13 5.49 7.5 7.6.37 2.12-5.54 9.74-4.48 9.74 1.06 0 8.93-.45 10.55.93 1.62 1.38.75 9.65 2.74 10.39 1.99.74 6.56-6.17 8.68-6.17h-.01z" fill="#3E9EFF"/><path d="M25 15.12L15.41 24.34l2.86 2.73 4.68-4.53.005 12.36h4.14V22.54l4.7 4.53 2.8-2.73L25.08 15.12H25z" fill="black"/></g></g><g transform="translate(448, 160)"><g transform="translate(3, 3) scale(0.528)"><path d="M25 43.77c2.12 0 6.68 6.9 8.68 6.17 1.99-.74 1.11-9 2.74-10.39 1.62-1.38 9.5-.93 10.55-.93 1.06 0-4.85-7.62-4.48-9.74.37-2.12 7.87-5.49 7.5-7.6-.37-2.12-8.54-2.68-9.6-4.54-1.06-1.86 2.55-9.33.93-10.72-1.62-1.38-8.24 3.53-10.23 2.79C29.08 8.07 27.12 0 25 0s-4.08 8.07-6.07 8.81c-1.99.74-8.61-4.17-10.23-2.79-1.62 1.38 1.98 8.85.93 10.72-1.06 1.86-9.24 2.42-9.6 4.54-.37 2.12 7.13 5.49 7.5 7.6.37 2.12-5.54 9.74-4.48 9.74 1.06 0 8.93-.45 10.55.93 1.62 1.38.75 9.65 2.74 10.39 1.99.74 6.56-6.17 8.68-6.17h-.01z" fill="#00D5D5"/><path d="M25 15.12L15.41 24.34l2.86 2.73 4.68-4.53.005 12.36h4.14V22.54l4.7 4.53 2.8-2.73L25.08 15.12H25z" fill="black"/></g></g><g transform="translate(196, 196)"><g transform="translate(3, 3) scale(0.528)"><path d="M25 43.77c2.12 0 6.68 6.9 8.68 6.17 1.99-.74 1.11-9 2.74-10.39 1.62-1.38 9.5-.93 10.55-.93 1.06 0-4.85-7.62-4.48-9.74.37-2.12 7.87-5.49 7.5-7.6-.37-2.12-8.54-2.68-9.6-4.54-1.06-1.86 2.55-9.33.93-10.72-1.62-1.38-8.24 3.53-10.23 2.79C29.08 8.07 27.12 0 25 0s-4.08 8.07-6.07 8.81c-1.99.74-8.61-4.17-10.23-2.79-1.62 1.38 1.98 8.85.93 10.72-1.06 1.86-9.24 2.42-9.6 4.54-.37 2.12 7.13 5.49 7.5 7.6.37 2.12-5.54 9.74-4.48 9.74 1.06 0 8.93-.45 10.55.93 1.62 1.38.75 9.65 2.74 10.39 1.99.74 6.56-6.17 8.68-6.17h-.01z" fill="#FFCA00"/><path d="M25 15.12L15.41 24.34l2.86 2.73 4.68-4.53.005 12.36h4.14V22.54l4.7 4.53 2.8-2.73L25.08 15.12H25z" fill="black"/></g></g><g transform="translate(232, 196)"><g transform="translate(3, 3) scale(0.528)"><path d="M25 43.77c2.12 0 6.68 6.9 8.68 6.17 1.99-.74 1.11-9 2.74-10.39 1.62-1.38 9.5-.93 10.55-.93 1.06 0-4.85-7.62-4.48-9.74.37-2.12 7.87-5.49 7.5-7.6-.37-2.12-8.54-2.68-9.6-4.54-1.06-1.86 2.55-9.33.93-10.72-1.62-1.38-8.24 3.53-10.23 2.79C29.08 8.07 27.12 0 25 0s-4.08 8.07-6.07 8.81c-1.99.74-8.61-4.17-10.23-2.79-1.62 1.38 1.98 8.85.93 10.72-1.06 1.86-9.24 2.42-9.6 4.54-.37 2.12 7.13 5.49 7.5 7.6.37 2.12-5.54 9.74-4.48 9.74 1.06 0 8.93-.45 10.55.93 1.62 1.38.75 9.65 2.74 10.39 1.99.74 6.56-6.17 8.68-6.17h-.01z" fill="#0A4BF1"/><path d="M25 15.12L15.41 24.34l2.86 2.73 4.68-4.53.005 12.36h4.14V22.54l4.7 4.53 2.8-2.73L25.08 15.12H25z" fill="black"/></g></g><g transform="translate(268, 196)"><g transform="translate(3, 3) scale(0.528)"><path d="M25 43.77c2.12 0 6.68 6.9 8.68 6.17 1.99-.74 1.11-9 2.74-10.39 1.62-1.38 9.5-.93 10.55-.93 1.06 0-4.85-7.62-4.48-9.74.37-2.12 7.87-5.49 7.5-7.6-.37-2.12-8.54-2.68-9.6-4.54-1.06-1.86 2.55-9.33.93-10.72-1.62-1.38-8.24 3.53-10.23 2.79C29.08 8.07 27.12 0 25 0s-4.08 8.07-6.07 8.81c-1.99.74-8.61-4.17-10.23-2.79-1.62 1.38 1.98 8.85.93 10.72-1.06 1.86-9.24 2.42-9.6 4.54-.37 2.12 7.13 5.49 7.5 7.6.37 2.12-5.54 9.74-4.48 9.74 1.06 0 8.93-.45 10.55.93 1.62 1.38.75 9.65 2.74 10.39 1.99.74 6.56-6.17 8.68-6.17h-.01z" fill="#4C1A9E"/><path d="M25 15.12L15.41 24.34l2.86 2.73 4.68-4.53.005 12.36h4.14V22.54l4.7 4.53 2.8-2.73L25.08 15.12H25z" fill="black"/></g></g><g transform="translate(304, 196)"><g transform="translate(3, 3) scale(0.528)"><path d="M25 43.77c2.12 0 6.68 6.9 8.68 6.17 1.99-.74 1.11-9 2.74-10.39 1.62-1.38 9.5-.93 10.55-.93 1.06 0-4.85-7.62-4.48-9.74.37-2.12 7.87-5.49 7.5-7.6-.37-2.12-8.54-2.68-9.6-4.54-1.06-1.86 2.55-9.33.93-10.72-1.62-1.38-8.24 3.53-10.23 2.79C29.08 8.07 27.12 0 25 0s-4.08 8.07-6.07 8.81c-1.99.74-8.61-4.17-10.23-2.79-1.62 1.38 1.98 8.85.93 10.72-1.06 1.86-9.24 2.42-9.6 4.54-.37 2.12 7.13 5.49 7.5 7.6.37 2.12-5.54 9.74-4.48 9.74 1.06 0 8.93-.45 10.55.93 1.62 1.38.75 9.65 2.74 10.39 1.99.74 6.56-6.17 8.68-6.17h-.01z" fill="#A18CFF"/><path d="M25 15.12L15.41 24.34l2.86 2.73 4.68-4.53.005 12.36h4.14V22.54l4.7 4.53 2.8-2.73L25.08 15.12H25z" fill="black"/></g></g><g transform="translate(340, 196)"><g transform="translate(3, 3) scale(0.528)"><path d="M25 43.77c2.12 0 6.68 6.9 8.68 6.17 1.99-.74 1.11-9 2.74-10.39 1.62-1.38 9.5-.93 10.55-.93 1.06 0-4.85-7.62-4.48-9.74.37-2.12 7.87-5.49 7.5-7.6-.37-2.12-8.54-2.68-9.6-4.54-1.06-1.86 2.55-9.33.93-10.72-1.62-1.38-8.24 3.53-10.23 2.79C29.08 8.07 27.12 0 25 0s-4.08 8.07-6.07 8.81c-1.99.74-8.61-4.17-10.23-2.79-1.62 1.38 1.98 8.85.93 10.72-1.06 1.86-9.24 2.42-9.6 4.54-.37 2.12 7.13 5.49 7.5 7.6.37 2.12-5.54 9.74-4.48 9.74 1.06 0 8.93-.45 10.55.93 1.62 1.38.75 9.65 2.74 10.39 1.99.74 6.56-6.17 8.68-6.17h-.01z" fill="#8B1448"/><path d="M25 15.12L15.41 24.34l2.86 2.73 4.68-4.53.005 12.36h4.14V22.54l4.7 4.53 2.8-2.73L25.08 15.12H25z" fill="black"/></g></g><g transform="translate(376, 196)"><g transform="translate(3, 3) scale(0.528)"><path d="M25 43.77c2.12 0 6.68 6.9 8.68 6.17 1.99-.74 1.11-9 2.74-10.39 1.62-1.38 9.5-.93 10.55-.93 1.06 0-4.85-7.62-4.48-9.74.37-2.12 7.87-5.49 7.5-7.6-.37-2.12-8.54-2.68-9.6-4.54-1.06-1.86 2.55-9.33.93-10.72-1.62-1.38-8.24 3.53-10.23 2.79C29.08 8.07 27.12 0 25 0s-4.08 8.07-6.07 8.81c-1.99.74-8.61-4.17-10.23-2.79-1.62 1.38 1.98 8.85.93 10.72-1.06 1.86-9.24 2.42-9.6 4.54-.37 2.12 7.13 5.49 7.5 7.6.37 2.12-5.54 9.74-4.48 9.74 1.06 0 8.93-.45 10.55.93 1.62 1.38.75 9.65 2.74 10.39 1.99.74 6.56-6.17 8.68-6.17h-.01z" fill="#8860FF"/><path d="M25 15.12L15.41 24.34l2.86 2.73 4.68-4.53.005 12.36h4.14V22.54l4.7 4.53 2.8-2.73L25.08 15.12H25z" fill="black"/></g></g><g transform="translate(412, 196)"><g transform="translate(3, 3) scale(0.528)"><path d="M25 43.77c2.12 0 6.68 6.9 8.68 6.17 1.99-.74 1.11-9 2.74-10.39 1.62-1.38 9.5-.93 10.55-.93 1.06 0-4.85-7.62-4.48-9.74.37-2.12 7.87-5.49 7.5-7.6-.37-2.12-8.54-2.68-9.6-4.54-1.06-1.86 2.55-9.33.93-10.72-1.62-1.38-8.24 3.53-10.23 2.79C29.08 8.07 27.12 0 25 0s-4.08 8.07-6.07 8.81c-1.99.74-8.61-4.17-10.23-2.79-1.62 1.38 1.98 8.85.93 10.72-1.06 1.86-9.24 2.42-9.6 4.54-.37 2.12 7.13 5.49 7.5 7.6.37 2.12-5.54 9.74-4.48 9.74 1.06 0 8.93-.45 10.55.93 1.62 1.38.75 9.65 2.74 10.39 1.99.74 6.56-6.17 8.68-6.17h-.01z" fill="#018A08"/><path d="M25 15.12L15.41 24.34l2.86 2.73 4.68-4.53.005 12.36h4.14V22.54l4.7 4.53 2.8-2.73L25.08 15.12H25z" fill="black"/></g></g><g transform="translate(448, 196)"><g transform="translate(3, 3) scale(0.528)"><path d="M25 43.77c2.12 0 6.68 6.9 8.68 6.17 1.99-.74 1.11-9 2.74-10.39 1.62-1.38 9.5-.93 10.55-.93 1.06 0-4.85-7.62-4.48-9.74.37-2.12 7.87-5.49 7.5-7.6-.37-2.12-8.54-2.68-9.6-4.54-1.06-1.86 2.55-9.33.93-10.72-1.62-1.38-8.24 3.53-10.23 2.79C29.08 8.07 27.12 0 25 0s-4.08 8.07-6.07 8.81c-1.99.74-8.61-4.17-10.23-2.79-1.62 1.38 1.98 8.85.93 10.72-1.06 1.86-9.24 2.42-9.6 4.54-.37 2.12 7.13 5.49 7.5 7.6.37 2.12-5.54 9.74-4.48 9.74 1.06 0 8.93-.45 10.55.93 1.62 1.38.75 9.65 2.74 10.39 1.99.74 6.56-6.17 8.68-6.17h-.01z" fill="#2E89FF"/><path d="M25 15.12L15.41 24.34l2.86 2.73 4.68-4.53.005 12.36h4.14V22.54l4.7 4.53 2.8-2.73L25.08 15.12H25z" fill="black"/></g></g><g transform="translate(196, 232)"><g transform="translate(3, 3) scale(0.528)"><path d="M25 43.77c2.12 0 6.68 6.9 8.68 6.17 1.99-.74 1.11-9 2.74-10.39 1.62-1.38 9.5-.93 10.55-.93 1.06 0-4.85-7.62-4.48-9.74.37-2.12 7.87-5.49 7.5-7.6-.37-2.12-8.54-2.68-9.6-4.54-1.06-1.86 2.55-9.33.93-10.72-1.62-1.38-8.24 3.53-10.23 2.79C29.08 8.07 27.12 0 25 0s-4.08 8.07-6.07 8.81c-1.99.74-8.61-4.17-10.23-2.79-1.62 1.38 1.98 8.85.93 10.72-1.06 1.86-9.24 2.42-9.6 4.54-.37 2.12 7.13 5.49 7.5 7.6.37 2.12-5.54 9.74-4.48 9.74 1.06 0 8.93-.45 10.55.93 1.62 1.38.75 9.65 2.74 10.39 1.99.74 6.56-6.17 8.68-6.17h-.01z" fill="#2D0157"/><path d="M25 15.12L15.41 24.34l2.86 2.73 4.68-4.53.005 12.36h4.14V22.54l4.7 4.53 2.8-2.73L25.08 15.12H25z" fill="black"/></g></g><g transform="translate(232, 232)"><g transform="translate(3, 3) scale(0.528)"><path d="M25 43.77c2.12 0 6.68 6.9 8.68 6.17 1.99-.74 1.11-9 2.74-10.39 1.62-1.38 9.5-.93 10.55-.93 1.06 0-4.85-7.62-4.48-9.74.37-2.12 7.87-5.49 7.5-7.6-.37-2.12-8.54-2.68-9.6-4.54-1.06-1.86 2.55-9.33.93-10.72-1.62-1.38-8.24 3.53-10.23 2.79C29.08 8.07 27.12 0 25 0s-4.08 8.07-6.07 8.81c-1.99.74-8.61-4.17-10.23-2.79-1.62 1.38 1.98 8.85.93 10.72-1.06 1.86-9.24 2.42-9.6 4.54-.37 2.12 7.13 5.49 7.5 7.6.37 2.12-5.54 9.74-4.48 9.74 1.06 0 8.93-.45 10.55.93 1.62 1.38.75 9.65 2.74 10.39 1.99.74 6.56-6.17 8.68-6.17h-.01z" fill="#9575FF"/><path d="M25 15.12L15.41 24.34l2.86 2.73 4.68-4.53.005 12.36h4.14V22.54l4.7 4.53 2.8-2.73L25.08 15.12H25z" fill="black"/></g></g><g transform="translate(268, 232)"><g transform="translate(3, 3) scale(0.528)"><path d="M25 43.77c2.12 0 6.68 6.9 8.68 6.17 1.99-.74 1.11-9 2.74-10.39 1.62-1.38 9.5-.93 10.55-.93 1.06 0-4.85-7.62-4.48-9.74.37-2.12 7.87-5.49 7.5-7.6-.37-2.12-8.54-2.68-9.6-4.54-1.06-1.86 2.55-9.33.93-10.72-1.62-1.38-8.24 3.53-10.23 2.79C29.08 8.07 27.12 0 25 0s-4.08 8.07-6.07 8.81c-1.99.74-8.61-4.17-10.23-2.79-1.62 1.38 1.98 8.85.93 10.72-1.06 1.86-9.24 2.42-9.6 4.54-.37 2.12 7.13 5.49 7.5 7.6.37 2.12-5.54 9.74-4.48 9.74 1.06 0 8.93-.45 10.55.93 1.62 1.38.75 9.65 2.74 10.39 1.99.74 6.56-6.17 8.68-6.17h-.01z" fill="#C992FF"/><path d="M25 15.12L15.41 24.34l2.86 2.73 4.68-4.53.005 12.36h4.14V22.54l4.7 4.53 2.8-2.73L25.08 15.12H25z" fill="black"/></g></g><g transform="translate(304, 232)"><g transform="translate(3, 3) scale(0.528)"><path d="M25 43.77c2.12 0 6.68 6.9 8.68 6.17 1.99-.74 1.11-9 2.74-10.39 1.62-1.38 9.5-.93 10.55-.93 1.06 0-4.85-7.62-4.48-9.74.37-2.12 7.87-5.49 7.5-7.6-.37-2.12-8.54-2.68-9.6-4.54-1.06-1.86 2.55-9.33.93-10.72-1.62-1.38-8.24 3.53-10.23 2.79C29.08 8.07 27.12 0 25 0s-4.08 8.07-6.07 8.81c-1.99.74-8.61-4.17-10.23-2.79-1.62 1.38 1.98 8.85.93 10.72-1.06 1.86-9.24 2.42-9.6 4.54-.37 2.12 7.13 5.49 7.5 7.6.37 2.12-5.54 9.74-4.48 9.74 1.06 0 8.93-.45 10.55.93 1.62 1.38.75 9.65 2.74 10.39 1.99.74 6.56-6.17 8.68-6.17h-.01z" fill="#A18CFF"/><path d="M25 15.12L15.41 24.34l2.86 2.73 4.68-4.53.005 12.36h4.14V22.54l4.7 4.53 2.8-2.73L25.08 15.12H25z" fill="black"/></g></g><g transform="translate(340, 232)"><g transform="translate(3, 3) scale(0.528)"><path d="M25 43.77c2.12 0 6.68 6.9 8.68 6.17 1.99-.74 1.11-9 2.74-10.39 1.62-1.38 9.5-.93 10.55-.93 1.06 0-4.85-7.62-4.48-9.74.37-2.12 7.87-5.49 7.5-7.6-.37-2.12-8.54-2.68-9.6-4.54-1.06-1.86 2.55-9.33.93-10.72-1.62-1.38-8.24 3.53-10.23 2.79C29.08 8.07 27.12 0 25 0s-4.08 8.07-6.07 8.81c-1.99.74-8.61-4.17-10.23-2.79-1.62 1.38 1.98 8.85.93 10.72-1.06 1.86-9.24 2.42-9.6 4.54-.37 2.12 7.13 5.49 7.5 7.6.37 2.12-5.54 9.74-4.48 9.74 1.06 0 8.93-.45 10.55.93 1.62 1.38.75 9.65 2.74 10.39 1.99.74 6.56-6.17 8.68-6.17h-.01z" fill="#1E74FF"/><path d="M25 15.12L15.41 24.34l2.86 2.73 4.68-4.53.005 12.36h4.14V22.54l4.7 4.53 2.8-2.73L25.08 15.12H25z" fill="black"/></g></g><g transform="translate(376, 232)"><g transform="translate(3, 3) scale(0.528)"><path d="M25 43.77c2.12 0 6.68 6.9 8.68 6.17 1.99-.74 1.11-9 2.74-10.39 1.62-1.38 9.5-.93 10.55-.93 1.06 0-4.85-7.62-4.48-9.74.37-2.12 7.87-5.49 7.5-7.6-.37-2.12-8.54-2.68-9.6-4.54-1.06-1.86 2.55-9.33.93-10.72-1.62-1.38-8.24 3.53-10.23 2.79C29.08 8.07 27.12 0 25 0s-4.08 8.07-6.07 8.81c-1.99.74-8.61-4.17-10.23-2.79-1.62 1.38 1.98 8.85.93 10.72-1.06 1.86-9.24 2.42-9.6 4.54-.37 2.12 7.13 5.49 7.5 7.6.37 2.12-5.54 9.74-4.48 9.74 1.06 0 8.93-.45 10.55.93 1.62 1.38.75 9.65 2.74 10.39 1.99.74 6.56-6.17 8.68-6.17h-.01z" fill="#1E74FF"/><path d="M25 15.12L15.41 24.34l2.86 2.73 4.68-4.53.005 12.36h4.14V22.54l4.7 4.53 2.8-2.73L25.08 15.12H25z" fill="black"/></g></g><g transform="translate(412, 232)"><g transform="translate(3, 3) scale(0.528)"><path d="M25 43.77c2.12 0 6.68 6.9 8.68 6.17 1.99-.74 1.11-9 2.74-10.39 1.62-1.38 9.5-.93 10.55-.93 1.06 0-4.85-7.62-4.48-9.74.37-2.12 7.87-5.49 7.5-7.6-.37-2.12-8.54-2.68-9.6-4.54-1.06-1.86 2.55-9.33.93-10.72-1.62-1.38-8.24 3.53-10.23 2.79C29.08 8.07 27.12 0 25 0s-4.08 8.07-6.07 8.81c-1.99.74-8.61-4.17-10.23-2.79-1.62 1.38 1.98 8.85.93 10.72-1.06 1.86-9.24 2.42-9.6 4.54-.37 2.12 7.13 5.49 7.5 7.6.37 2.12-5.54 9.74-4.48 9.74 1.06 0 8.93-.45 10.55.93 1.62 1.38.75 9.65 2.74 10.39 1.99.74 6.56-6.17 8.68-6.17h-.01z" fill="#9C195D"/><path d="M25 15.12L15.41 24.34l2.86 2.73 4.68-4.53.005 12.36h4.14V22.54l4.7 4.53 2.8-2.73L25.08 15.12H25z" fill="black"/></g></g><g transform="translate(448, 232)"><g transform="translate(3, 3) scale(0.528)"><path d="M25 43.77c2.12 0 6.68 6.9 8.68 6.17 1.99-.74 1.11-9 2.74-10.39 1.62-1.38 9.5-.93 10.55-.93 1.06 0-4.85-7.62-4.48-9.74.37-2.12 7.87-5.49 7.5-7.6-.37-2.12-8.54-2.68-9.6-4.54-1.06-1.86 2.55-9.33.93-10.72-1.62-1.38-8.24 3.53-10.23 2.79C29.08 8.07 27.12 0 25 0s-4.08 8.07-6.07 8.81c-1.99.74-8.61-4.17-10.23-2.79-1.62 1.38 1.98 8.85.93 10.72-1.06 1.86-9.24 2.42-9.6 4.54-.37 2.12 7.13 5.49 7.5 7.6.37 2.12-5.54 9.74-4.48 9.74 1.06 0 8.93-.45 10.55.93 1.62 1.38.75 9.65 2.74 10.39 1.99.74 6.56-6.17 8.68-6.17h-.01z" fill="#4EB3FF"/><path d="M25 15.12L15.41 24.34l2.86 2.73 4.68-4.53.005 12.36h4.14V22.54l4.7 4.53 2.8-2.73L25.08 15.12H25z" fill="black"/></g></g><g transform="translate(196, 268)"><g transform="translate(3, 3) scale(0.528)"><path d="M25 43.77c2.12 0 6.68 6.9 8.68 6.17 1.99-.74 1.11-9 2.74-10.39 1.62-1.38 9.5-.93 10.55-.93 1.06 0-4.85-7.62-4.48-9.74.37-2.12 7.87-5.49 7.5-7.6-.37-2.12-8.54-2.68-9.6-4.54-1.06-1.86 2.55-9.33.93-10.72-1.62-1.38-8.24 3.53-10.23 2.79C29.08 8.07 27.12 0 25 0s-4.08 8.07-6.07 8.81c-1.99.74-8.61-4.17-10.23-2.79-1.62 1.38 1.98 8.85.93 10.72-1.06 1.86-9.24 2.42-9.6 4.54-.37 2.12 7.13 5.49 7.5 7.6.37 2.12-5.54 9.74-4.48 9.74 1.06 0 8.93-.45 10.55.93 1.62 1.38.75 9.65 2.74 10.39 1.99.74 6.56-6.17 8.68-6.17h-.01z" fill="#04C91A"/><path d="M25 15.12L15.41 24.34l2.86 2.73 4.68-4.53.005 12.36h4.14V22.54l4.7 4.53 2.8-2.73L25.08 15.12H25z" fill="black"/></g></g><g transform="translate(232, 268)"><g transform="translate(3, 3) scale(0.528)"><path d="M25 43.77c2.12 0 6.68 6.9 8.68 6.17 1.99-.74 1.11-9 2.74-10.39 1.62-1.38 9.5-.93 10.55-.93 1.06 0-4.85-7.62-4.48-9.74.37-2.12 7.87-5.49 7.5-7.6-.37-2.12-8.54-2.68-9.6-4.54-1.06-1.86 2.55-9.33.93-10.72-1.62-1.38-8.24 3.53-10.23 2.79C29.08 8.07 27.12 0 25 0s-4.08 8.07-6.07 8.81c-1.99.74-8.61-4.17-10.23-2.79-1.62 1.38 1.98 8.85.93 10.72-1.06 1.86-9.24 2.42-9.6 4.54-.37 2.12 7.13 5.49 7.5 7.6.37 2.12-5.54 9.74-4.48 9.74 1.06 0 8.93-.45 10.55.93 1.62 1.38.75 9.65 2.74 10.39 1.99.74 6.56-6.17 8.68-6.17h-.01z" fill="#7D47B7"/><path d="M25 15.12L15.41 24.34l2.86 2.73 4.68-4.53.005 12.36h4.14V22.54l4.7 4.53 2.8-2.73L25.08 15.12H25z" fill="black"/></g></g><g transform="translate(268, 268)"><g transform="translate(3, 3) scale(0.528)"><path d="M25 43.77c2.12 0 6.68 6.9 8.68 6.17 1.99-.74 1.11-9 2.74-10.39 1.62-1.38 9.5-.93 10.55-.93 1.06 0-4.85-7.62-4.48-9.74.37-2.12 7.87-5.49 7.5-7.6-.37-2.12-8.54-2.68-9.6-4.54-1.06-1.86 2.55-9.33.93-10.72-1.62-1.38-8.24 3.53-10.23 2.79C29.08 8.07 27.12 0 25 0s-4.08 8.07-6.07 8.81c-1.99.74-8.61-4.17-10.23-2.79-1.62 1.38 1.98 8.85.93 10.72-1.06 1.86-9.24 2.42-9.6 4.54-.37 2.12 7.13 5.49 7.5 7.6.37 2.12-5.54 9.74-4.48 9.74 1.06 0 8.93-.45 10.55.93 1.62 1.38.75 9.65 2.74 10.39 1.99.74 6.56-6.17 8.68-6.17h-.01z" fill="#00F5F5"/><path d="M25 15.12L15.41 24.34l2.86 2.73 4.68-4.53.005 12.36h4.14V22.54l4.7 4.53 2.8-2.73L25.08 15.12H25z" fill="black"/></g></g><g transform="translate(304, 268)"><g transform="translate(3, 3) scale(0.528)"><path d="M25 43.77c2.12 0 6.68 6.9 8.68 6.17 1.99-.74 1.11-9 2.74-10.39 1.62-1.38 9.5-.93 10.55-.93 1.06 0-4.85-7.62-4.48-9.74.37-2.12 7.87-5.49 7.5-7.6-.37-2.12-8.54-2.68-9.6-4.54-1.06-1.86 2.55-9.33.93-10.72-1.62-1.38-8.24 3.53-10.23 2.79C29.08 8.07 27.12 0 25 0s-4.08 8.07-6.07 8.81c-1.99.74-8.61-4.17-10.23-2.79-1.62 1.38 1.98 8.85.93 10.72-1.06 1.86-9.24 2.42-9.6 4.54-.37 2.12 7.13 5.49 7.5 7.6.37 2.12-5.54 9.74-4.48 9.74 1.06 0 8.93-.45 10.55.93 1.62 1.38.75 9.65 2.74 10.39 1.99.74 6.56-6.17 8.68-6.17h-.01z" fill="#4C1A9E"/><path d="M25 15.12L15.41 24.34l2.86 2.73 4.68-4.53.005 12.36h4.14V22.54l4.7 4.53 2.8-2.73L25.08 15.12H25z" fill="black"/></g></g><g transform="translate(340, 268)"><g transform="translate(3, 3) scale(0.528)"><path d="M25 43.77c2.12 0 6.68 6.9 8.68 6.17 1.99-.74 1.11-9 2.74-10.39 1.62-1.38 9.5-.93 10.55-.93 1.06 0-4.85-7.62-4.48-9.74.37-2.12 7.87-5.49 7.5-7.6-.37-2.12-8.54-2.68-9.6-4.54-1.06-1.86 2.55-9.33.93-10.72-1.62-1.38-8.24 3.53-10.23 2.79C29.08 8.07 27.12 0 25 0s-4.08 8.07-6.07 8.81c-1.99.74-8.61-4.17-10.23-2.79-1.62 1.38 1.98 8.85.93 10.72-1.06 1.86-9.24 2.42-9.6 4.54-.37 2.12 7.13 5.49 7.5 7.6.37 2.12-5.54 9.74-4.48 9.74 1.06 0 8.93-.45 10.55.93 1.62 1.38.75 9.65 2.74 10.39 1.99.74 6.56-6.17 8.68-6.17h-.01z" fill="#E02DB1"/><path d="M25 15.12L15.41 24.34l2.86 2.73 4.68-4.53.005 12.36h4.14V22.54l4.7 4.53 2.8-2.73L25.08 15.12H25z" fill="black"/></g></g><g transform="translate(376, 268)"><g transform="translate(3, 3) scale(0.528)"><path d="M25 43.77c2.12 0 6.68 6.9 8.68 6.17 1.99-.74 1.11-9 2.74-10.39 1.62-1.38 9.5-.93 10.55-.93 1.06 0-4.85-7.62-4.48-9.74.37-2.12 7.87-5.49 7.5-7.6-.37-2.12-8.54-2.68-9.6-4.54-1.06-1.86 2.55-9.33.93-10.72-1.62-1.38-8.24 3.53-10.23 2.79C29.08 8.07 27.12 0 25 0s-4.08 8.07-6.07 8.81c-1.99.74-8.61-4.17-10.23-2.79-1.62 1.38 1.98 8.85.93 10.72-1.06 1.86-9.24 2.42-9.6 4.54-.37 2.12 7.13 5.49 7.5 7.6.37 2.12-5.54 9.74-4.48 9.74 1.06 0 8.93-.45 10.55.93 1.62 1.38.75 9.65 2.74 10.39 1.99.74 6.56-6.17 8.68-6.17h-.01z" fill="#780209"/><path d="M25 15.12L15.41 24.34l2.86 2.73 4.68-4.53.005 12.36h4.14V22.54l4.7 4.53 2.8-2.73L25.08 15.12H25z" fill="black"/></g></g><g transform="translate(412, 268)"><g transform="translate(3, 3) scale(0.528)"><path d="M25 43.77c2.12 0 6.68 6.9 8.68 6.17 1.99-.74 1.11-9 2.74-10.39 1.62-1.38 9.5-.93 10.55-.93 1.06 0-4.85-7.62-4.48-9.74.37-2.12 7.87-5.49 7.5-7.6-.37-2.12-8.54-2.68-9.6-4.54-1.06-1.86 2.55-9.33.93-10.72-1.62-1.38-8.24 3.53-10.23 2.79C29.08 8.07 27.12 0 25 0s-4.08 8.07-6.07 8.81c-1.99.74-8.61-4.17-10.23-2.79-1.62 1.38 1.98 8.85.93 10.72-1.06 1.86-9.24 2.42-9.6 4.54-.37 2.12 7.13 5.49 7.5 7.6.37 2.12-5.54 9.74-4.48 9.74 1.06 0 8.93-.45 10.55.93 1.62 1.38.75 9.65 2.74 10.39 1.99.74 6.56-6.17 8.68-6.17h-.01z" fill="#9575FF"/><path d="M25 15.12L15.41 24.34l2.86 2.73 4.68-4.53.005 12.36h4.14V22.54l4.7 4.53 2.8-2.73L25.08 15.12H25z" fill="black"/></g></g><g transform="translate(448, 268)"><g transform="translate(3, 3) scale(0.528)"><path d="M25 43.77c2.12 0 6.68 6.9 8.68 6.17 1.99-.74 1.11-9 2.74-10.39 1.62-1.38 9.5-.93 10.55-.93 1.06 0-4.85-7.62-4.48-9.74.37-2.12 7.87-5.49 7.5-7.6-.37-2.12-8.54-2.68-9.6-4.54-1.06-1.86 2.55-9.33.93-10.72-1.62-1.38-8.24 3.53-10.23 2.79C29.08 8.07 27.12 0 25 0s-4.08 8.07-6.07 8.81c-1.99.74-8.61-4.17-10.23-2.79-1.62 1.38 1.98 8.85.93 10.72-1.06 1.86-9.24 2.42-9.6 4.54-.37 2.12 7.13 5.49 7.5 7.6.37 2.12-5.54 9.74-4.48 9.74 1.06 0 8.93-.45 10.55.93 1.62 1.38.75 9.65 2.74 10.39 1.99.74 6.56-6.17 8.68-6.17h-.01z" fill="#65FF85"/><path d="M25 15.12L15.41 24.34l2.86 2.73 4.68-4.53.005 12.36h4.14V22.54l4.7 4.53 2.8-2.73L25.08 15.12H25z" fill="black"/></g></g><g transform="translate(196, 304)"><g transform="translate(3, 3) scale(0.528)"><path d="M25 43.77c2.12 0 6.68 6.9 8.68 6.17 1.99-.74 1.11-9 2.74-10.39 1.62-1.38 9.5-.93 10.55-.93 1.06 0-4.85-7.62-4.48-9.74.37-2.12 7.87-5.49 7.5-7.6-.37-2.12-8.54-2.68-9.6-4.54-1.06-1.86 2.55-9.33.93-10.72-1.62-1.38-8.24 3.53-10.23 2.79C29.08 8.07 27.12 0 25 0s-4.08 8.07-6.07 8.81c-1.99.74-8.61-4.17-10.23-2.79-1.62 1.38 1.98 8.85.93 10.72-1.06 1.86-9.24 2.42-9.6 4.54-.37 2.12 7.13 5.49 7.5 7.6.37 2.12-5.54 9.74-4.48 9.74 1.06 0 8.93-.45 10.55.93 1.62 1.38.75 9.65 2.74 10.39 1.99.74 6.56-6.17 8.68-6.17h-.01z" fill="#E02DB1"/><path d="M25 15.12L15.41 24.34l2.86 2.73 4.68-4.53.005 12.36h4.14V22.54l4.7 4.53 2.8-2.73L25.08 15.12H25z" fill="black"/></g></g><g transform="translate(232, 304)"><g transform="translate(3, 3) scale(0.528)"><path d="M25 43.77c2.12 0 6.68 6.9 8.68 6.17 1.99-.74 1.11-9 2.74-10.39 1.62-1.38 9.5-.93 10.55-.93 1.06 0-4.85-7.62-4.48-9.74.37-2.12 7.87-5.49 7.5-7.6-.37-2.12-8.54-2.68-9.6-4.54-1.06-1.86 2.55-9.33.93-10.72-1.62-1.38-8.24 3.53-10.23 2.79C29.08 8.07 27.12 0 25 0s-4.08 8.07-6.07 8.81c-1.99.74-8.61-4.17-10.23-2.79-1.62 1.38 1.98 8.85.93 10.72-1.06 1.86-9.24 2.42-9.6 4.54-.37 2.12 7.13 5.49 7.5 7.6.37 2.12-5.54 9.74-4.48 9.74 1.06 0 8.93-.45 10.55.93 1.62 1.38.75 9.65 2.74 10.39 1.99.74 6.56-6.17 8.68-6.17h-.01z" fill="#FFBC00"/><path d="M25 15.12L15.41 24.34l2.86 2.73 4.68-4.53.005 12.36h4.14V22.54l4.7 4.53 2.8-2.73L25.08 15.12H25z" fill="black"/></g></g><g transform="translate(268, 304)"><g transform="translate(3, 3) scale(0.528)"><path d="M25 43.77c2.12 0 6.68 6.9 8.68 6.17 1.99-.74 1.11-9 2.74-10.39 1.62-1.38 9.5-.93 10.55-.93 1.06 0-4.85-7.62-4.48-9.74.37-2.12 7.87-5.49 7.5-7.6-.37-2.12-8.54-2.68-9.6-4.54-1.06-1.86 2.55-9.33.93-10.72-1.62-1.38-8.24 3.53-10.23 2.79C29.08 8.07 27.12 0 25 0s-4.08 8.07-6.07 8.81c-1.99.74-8.61-4.17-10.23-2.79-1.62 1.38 1.98 8.85.93 10.72-1.06 1.86-9.24 2.42-9.6 4.54-.37 2.12 7.13 5.49 7.5 7.6.37 2.12-5.54 9.74-4.48 9.74 1.06 0 8.93-.45 10.55.93 1.62 1.38.75 9.65 2.74 10.39 1.99.74 6.56-6.17 8.68-6.17h-.01z" fill="#7A0F33"/><path d="M25 15.12L15.41 24.34l2.86 2.73 4.68-4.53.005 12.36h4.14V22.54l4.7 4.53 2.8-2.73L25.08 15.12H25z" fill="black"/></g></g><g transform="translate(304, 304)"><g transform="translate(3, 3) scale(0.528)"><path d="M25 43.77c2.12 0 6.68 6.9 8.68 6.17 1.99-.74 1.11-9 2.74-10.39 1.62-1.38 9.5-.93 10.55-.93 1.06 0-4.85-7.62-4.48-9.74.37-2.12 7.87-5.49 7.5-7.6-.37-2.12-8.54-2.68-9.6-4.54-1.06-1.86 2.55-9.33.93-10.72-1.62-1.38-8.24 3.53-10.23 2.79C29.08 8.07 27.12 0 25 0s-4.08 8.07-6.07 8.81c-1.99.74-8.61-4.17-10.23-2.79-1.62 1.38 1.98 8.85.93 10.72-1.06 1.86-9.24 2.42-9.6 4.54-.37 2.12 7.13 5.49 7.5 7.6.37 2.12-5.54 9.74-4.48 9.74 1.06 0 8.93-.45 10.55.93 1.62 1.38.75 9.65 2.74 10.39 1.99.74 6.56-6.17 8.68-6.17h-.01z" fill="#0E5FFF"/><path d="M25 15.12L15.41 24.34l2.86 2.73 4.68-4.53.005 12.36h4.14V22.54l4.7 4.53 2.8-2.73L25.08 15.12H25z" fill="black"/></g></g><g transform="translate(340, 304)"><g transform="translate(3, 3) scale(0.528)"><path d="M25 43.77c2.12 0 6.68 6.9 8.68 6.17 1.99-.74 1.11-9 2.74-10.39 1.62-1.38 9.5-.93 10.55-.93 1.06 0-4.85-7.62-4.48-9.74.37-2.12 7.87-5.49 7.5-7.6-.37-2.12-8.54-2.68-9.6-4.54-1.06-1.86 2.55-9.33.93-10.72-1.62-1.38-8.24 3.53-10.23 2.79C29.08 8.07 27.12 0 25 0s-4.08 8.07-6.07 8.81c-1.99.74-8.61-4.17-10.23-2.79-1.62 1.38 1.98 8.85.93 10.72-1.06 1.86-9.24 2.42-9.6 4.54-.37 2.12 7.13 5.49 7.5 7.6.37 2.12-5.54 9.74-4.48 9.74 1.06 0 8.93-.45 10.55.93 1.62 1.38.75 9.65 2.74 10.39 1.99.74 6.56-6.17 8.68-6.17h-.01z" fill="#E5FF05"/><path d="M25 15.12L15.41 24.34l2.86 2.73 4.68-4.53.005 12.36h4.14V22.54l4.7 4.53 2.8-2.73L25.08 15.12H25z" fill="black"/></g></g><g transform="translate(376, 304)"><g transform="translate(3, 3) scale(0.528)"><path d="M25 43.77c2.12 0 6.68 6.9 8.68 6.17 1.99-.74 1.11-9 2.74-10.39 1.62-1.38 9.5-.93 10.55-.93 1.06 0-4.85-7.62-4.48-9.74.37-2.12 7.87-5.49 7.5-7.6-.37-2.12-8.54-2.68-9.6-4.54-1.06-1.86 2.55-9.33.93-10.72-1.62-1.38-8.24 3.53-10.23 2.79C29.08 8.07 27.12 0 25 0s-4.08 8.07-6.07 8.81c-1.99.74-8.61-4.17-10.23-2.79-1.62 1.38 1.98 8.85.93 10.72-1.06 1.86-9.24 2.42-9.6 4.54-.37 2.12 7.13 5.49 7.5 7.6.37 2.12-5.54 9.74-4.48 9.74 1.06 0 8.93-.45 10.55.93 1.62 1.38.75 9.65 2.74 10.39 1.99.74 6.56-6.17 8.68-6.17h-.01z" fill="#5EC8FF"/><path d="M25 15.12L15.41 24.34l2.86 2.73 4.68-4.53.005 12.36h4.14V22.54l4.7 4.53 2.8-2.73L25.08 15.12H25z" fill="black"/></g></g><g transform="translate(412, 304)"><g transform="translate(3, 3) scale(0.528)"><path d="M25 43.77c2.12 0 6.68 6.9 8.68 6.17 1.99-.74 1.11-9 2.74-10.39 1.62-1.38 9.5-.93 10.55-.93 1.06 0-4.85-7.62-4.48-9.74.37-2.12 7.87-5.49 7.5-7.6-.37-2.12-8.54-2.68-9.6-4.54-1.06-1.86 2.55-9.33.93-10.72-1.62-1.38-8.24 3.53-10.23 2.79C29.08 8.07 27.12 0 25 0s-4.08 8.07-6.07 8.81c-1.99.74-8.61-4.17-10.23-2.79-1.62 1.38 1.98 8.85.93 10.72-1.06 1.86-9.24 2.42-9.6 4.54-.37 2.12 7.13 5.49 7.5 7.6.37 2.12-5.54 9.74-4.48 9.74 1.06 0 8.93-.45 10.55.93 1.62 1.38.75 9.65 2.74 10.39 1.99.74 6.56-6.17 8.68-6.17h-.01z" fill="#FFCA00"/><path d="M25 15.12L15.41 24.34l2.86 2.73 4.68-4.53.005 12.36h4.14V22.54l4.7 4.53 2.8-2.73L25.08 15.12H25z" fill="black"/></g></g><g transform="translate(448, 304)"><g transform="translate(3, 3) scale(0.528)"><path d="M25 43.77c2.12 0 6.68 6.9 8.68 6.17 1.99-.74 1.11-9 2.74-10.39 1.62-1.38 9.5-.93 10.55-.93 1.06 0-4.85-7.62-4.48-9.74.37-2.12 7.87-5.49 7.5-7.6-.37-2.12-8.54-2.68-9.6-4.54-1.06-1.86 2.55-9.33.93-10.72-1.62-1.38-8.24 3.53-10.23 2.79C29.08 8.07 27.12 0 25 0s-4.08 8.07-6.07 8.81c-1.99.74-8.61-4.17-10.23-2.79-1.62 1.38 1.98 8.85.93 10.72-1.06 1.86-9.24 2.42-9.6 4.54-.37 2.12 7.13 5.49 7.5 7.6.37 2.12-5.54 9.74-4.48 9.74 1.06 0 8.93-.45 10.55.93 1.62 1.38.75 9.65 2.74 10.39 1.99.74 6.56-6.17 8.68-6.17h-.01z" fill="#4EB3FF"/><path d="M25 15.12L15.41 24.34l2.86 2.73 4.68-4.53.005 12.36h4.14V22.54l4.7 4.53 2.8-2.73L25.08 15.12H25z" fill="black"/></g></g><g transform="translate(196, 340)"><g transform="translate(3, 3) scale(0.528)"><path d="M25 43.77c2.12 0 6.68 6.9 8.68 6.17 1.99-.74 1.11-9 2.74-10.39 1.62-1.38 9.5-.93 10.55-.93 1.06 0-4.85-7.62-4.48-9.74.37-2.12 7.87-5.49 7.5-7.6-.37-2.12-8.54-2.68-9.6-4.54-1.06-1.86 2.55-9.33.93-10.72-1.62-1.38-8.24 3.53-10.23 2.79C29.08 8.07 27.12 0 25 0s-4.08 8.07-6.07 8.81c-1.99.74-8.61-4.17-10.23-2.79-1.62 1.38 1.98 8.85.93 10.72-1.06 1.86-9.24 2.42-9.6 4.54-.37 2.12 7.13 5.49 7.5 7.6.37 2.12-5.54 9.74-4.48 9.74 1.06 0 8.93-.45 10.55.93 1.62 1.38.75 9.65 2.74 10.39 1.99.74 6.56-6.17 8.68-6.17h-.01z" fill="#E77AFF"/><path d="M25 15.12L15.41 24.34l2.86 2.73 4.68-4.53.005 12.36h4.14V22.54l4.7 4.53 2.8-2.73L25.08 15.12H25z" fill="black"/></g></g><g transform="translate(232, 340)"><g transform="translate(3, 3) scale(0.528)"><path d="M25 43.77c2.12 0 6.68 6.9 8.68 6.17 1.99-.74 1.11-9 2.74-10.39 1.62-1.38 9.5-.93 10.55-.93 1.06 0-4.85-7.62-4.48-9.74.37-2.12 7.87-5.49 7.5-7.6-.37-2.12-8.54-2.68-9.6-4.54-1.06-1.86 2.55-9.33.93-10.72-1.62-1.38-8.24 3.53-10.23 2.79C29.08 8.07 27.12 0 25 0s-4.08 8.07-6.07 8.81c-1.99.74-8.61-4.17-10.23-2.79-1.62 1.38 1.98 8.85.93 10.72-1.06 1.86-9.24 2.42-9.6 4.54-.37 2.12 7.13 5.49 7.5 7.6.37 2.12-5.54 9.74-4.48 9.74 1.06 0 8.93-.45 10.55.93 1.62 1.38.75 9.65 2.74 10.39 1.99.74 6.56-6.17 8.68-6.17h-.01z" fill="#FFCA00"/><path d="M25 15.12L15.41 24.34l2.86 2.73 4.68-4.53.005 12.36h4.14V22.54l4.7 4.53 2.8-2.73L25.08 15.12H25z" fill="black"/></g></g><g transform="translate(268, 340)"><g transform="translate(3, 3) scale(0.528)"><path d="M25 43.77c2.12 0 6.68 6.9 8.68 6.17 1.99-.74 1.11-9 2.74-10.39 1.62-1.38 9.5-.93 10.55-.93 1.06 0-4.85-7.62-4.48-9.74.37-2.12 7.87-5.49 7.5-7.6-.37-2.12-8.54-2.68-9.6-4.54-1.06-1.86 2.55-9.33.93-10.72-1.62-1.38-8.24 3.53-10.23 2.79C29.08 8.07 27.12 0 25 0s-4.08 8.07-6.07 8.81c-1.99.74-8.61-4.17-10.23-2.79-1.62 1.38 1.98 8.85.93 10.72-1.06 1.86-9.24 2.42-9.6 4.54-.37 2.12 7.13 5.49 7.5 7.6.37 2.12-5.54 9.74-4.48 9.74 1.06 0 8.93-.45 10.55.93 1.62 1.38.75 9.65 2.74 10.39 1.99.74 6.56-6.17 8.68-6.17h-.01z" fill="#F34ADC"/><path d="M25 15.12L15.41 24.34l2.86 2.73 4.68-4.53.005 12.36h4.14V22.54l4.7 4.53 2.8-2.73L25.08 15.12H25z" fill="black"/></g></g><g transform="translate(304, 340)"><g transform="translate(3, 3) scale(0.528)"><path d="M25 43.77c2.12 0 6.68 6.9 8.68 6.17 1.99-.74 1.11-9 2.74-10.39 1.62-1.38 9.5-.93 10.55-.93 1.06 0-4.85-7.62-4.48-9.74.37-2.12 7.87-5.49 7.5-7.6-.37-2.12-8.54-2.68-9.6-4.54-1.06-1.86 2.55-9.33.93-10.72-1.62-1.38-8.24 3.53-10.23 2.79C29.08 8.07 27.12 0 25 0s-4.08 8.07-6.07 8.81c-1.99.74-8.61-4.17-10.23-2.79-1.62 1.38 1.98 8.85.93 10.72-1.06 1.86-9.24 2.42-9.6 4.54-.37 2.12 7.13 5.49 7.5 7.6.37 2.12-5.54 9.74-4.48 9.74 1.06 0 8.93-.45 10.55.93 1.62 1.38.75 9.65 2.74 10.39 1.99.74 6.56-6.17 8.68-6.17h-.01z" fill="#65FF85"/><path d="M25 15.12L15.41 24.34l2.86 2.73 4.68-4.53.005 12.36h4.14V22.54l4.7 4.53 2.8-2.73L25.08 15.12H25z" fill="black"/></g></g><g transform="translate(340, 340)"><g transform="translate(3, 3) scale(0.528)"><path d="M25 43.77c2.12 0 6.68 6.9 8.68 6.17 1.99-.74 1.11-9 2.74-10.39 1.62-1.38 9.5-.93 10.55-.93 1.06 0-4.85-7.62-4.48-9.74.37-2.12 7.87-5.49 7.5-7.6-.37-2.12-8.54-2.68-9.6-4.54-1.06-1.86 2.55-9.33.93-10.72-1.62-1.38-8.24 3.53-10.23 2.79C29.08 8.07 27.12 0 25 0s-4.08 8.07-6.07 8.81c-1.99.74-8.61-4.17-10.23-2.79-1.62 1.38 1.98 8.85.93 10.72-1.06 1.86-9.24 2.42-9.6 4.54-.37 2.12 7.13 5.49 7.5 7.6.37 2.12-5.54 9.74-4.48 9.74 1.06 0 8.93-.45 10.55.93 1.62 1.38.75 9.65 2.74 10.39 1.99.74 6.56-6.17 8.68-6.17h-.01z" fill="#FFD800"/><path d="M25 15.12L15.41 24.34l2.86 2.73 4.68-4.53.005 12.36h4.14V22.54l4.7 4.53 2.8-2.73L25.08 15.12H25z" fill="black"/></g></g><g transform="translate(376, 340)"><g transform="translate(3, 3) scale(0.528)"><path d="M25 43.77c2.12 0 6.68 6.9 8.68 6.17 1.99-.74 1.11-9 2.74-10.39 1.62-1.38 9.5-.93 10.55-.93 1.06 0-4.85-7.62-4.48-9.74.37-2.12 7.87-5.49 7.5-7.6-.37-2.12-8.54-2.68-9.6-4.54-1.06-1.86 2.55-9.33.93-10.72-1.62-1.38-8.24 3.53-10.23 2.79C29.08 8.07 27.12 0 25 0s-4.08 8.07-6.07 8.81c-1.99.74-8.61-4.17-10.23-2.79-1.62 1.38 1.98 8.85.93 10.72-1.06 1.86-9.24 2.42-9.6 4.54-.37 2.12 7.13 5.49 7.5 7.6.37 2.12-5.54 9.74-4.48 9.74 1.06 0 8.93-.45 10.55.93 1.62 1.38.75 9.65 2.74 10.39 1.99.74 6.56-6.17 8.68-6.17h-.01z" fill="#6EDDFF"/><path d="M25 15.12L15.41 24.34l2.86 2.73 4.68-4.53.005 12.36h4.14V22.54l4.7 4.53 2.8-2.73L25.08 15.12H25z" fill="black"/></g></g><g transform="translate(412, 340)"><g transform="translate(3, 3) scale(0.528)"><path d="M25 43.77c2.12 0 6.68 6.9 8.68 6.17 1.99-.74 1.11-9 2.74-10.39 1.62-1.38 9.5-.93 10.55-.93 1.06 0-4.85-7.62-4.48-9.74.37-2.12 7.87-5.49 7.5-7.6-.37-2.12-8.54-2.68-9.6-4.54-1.06-1.86 2.55-9.33.93-10.72-1.62-1.38-8.24 3.53-10.23 2.79C29.08 8.07 27.12 0 25 0s-4.08 8.07-6.07 8.81c-1.99.74-8.61-4.17-10.23-2.79-1.62 1.38 1.98 8.85.93 10.72-1.06 1.86-9.24 2.42-9.6 4.54-.37 2.12 7.13 5.49 7.5 7.6.37 2.12-5.54 9.74-4.48 9.74 1.06 0 8.93-.45 10.55.93 1.62 1.38.75 9.65 2.74 10.39 1.99.74 6.56-6.17 8.68-6.17h-.01z" fill="#E5FF05"/><path d="M25 15.12L15.41 24.34l2.86 2.73 4.68-4.53.005 12.36h4.14V22.54l4.7 4.53 2.8-2.73L25.08 15.12H25z" fill="black"/></g></g><g transform="translate(448, 340)"><g transform="translate(3, 3) scale(0.528)"><path d="M25 43.77c2.12 0 6.68 6.9 8.68 6.17 1.99-.74 1.11-9 2.74-10.39 1.62-1.38 9.5-.93 10.55-.93 1.06 0-4.85-7.62-4.48-9.74.37-2.12 7.87-5.49 7.5-7.6-.37-2.12-8.54-2.68-9.6-4.54-1.06-1.86 2.55-9.33.93-10.72-1.62-1.38-8.24 3.53-10.23 2.79C29.08 8.07 27.12 0 25 0s-4.08 8.07-6.07 8.81c-1.99.74-8.61-4.17-10.23-2.79-1.62 1.38 1.98 8.85.93 10.72-1.06 1.86-9.24 2.42-9.6 4.54-.37 2.12 7.13 5.49 7.5 7.6.37 2.12-5.54 9.74-4.48 9.74 1.06 0 8.93-.45 10.55.93 1.62 1.38.75 9.65 2.74 10.39 1.99.74 6.56-6.17 8.68-6.17h-.01z" fill="#FFBC00"/><path d="M25 15.12L15.41 24.34l2.86 2.73 4.68-4.53.005 12.36h4.14V22.54l4.7 4.53 2.8-2.73L25.08 15.12H25z" fill="black"/></g></g><g transform="translate(196, 376)"><g transform="translate(3, 3) scale(0.528)"><path d="M25 43.77c2.12 0 6.68 6.9 8.68 6.17 1.99-.74 1.11-9 2.74-10.39 1.62-1.38 9.5-.93 10.55-.93 1.06 0-4.85-7.62-4.48-9.74.37-2.12 7.87-5.49 7.5-7.6-.37-2.12-8.54-2.68-9.6-4.54-1.06-1.86 2.55-9.33.93-10.72-1.62-1.38-8.24 3.53-10.23 2.79C29.08 8.07 27.12 0 25 0s-4.08 8.07-6.07 8.81c-1.99.74-8.61-4.17-10.23-2.79-1.62 1.38 1.98 8.85.93 10.72-1.06 1.86-9.24 2.42-9.6 4.54-.37 2.12 7.13 5.49 7.5 7.6.37 2.12-5.54 9.74-4.48 9.74 1.06 0 8.93-.45 10.55.93 1.62 1.38.75 9.65 2.74 10.39 1.99.74 6.56-6.17 8.68-6.17h-.01z" fill="#A18CFF"/><path d="M25 15.12L15.41 24.34l2.86 2.73 4.68-4.53.005 12.36h4.14V22.54l4.7 4.53 2.8-2.73L25.08 15.12H25z" fill="black"/></g></g><g transform="translate(232, 376)"><g transform="translate(3, 3) scale(0.528)"><path d="M25 43.77c2.12 0 6.68 6.9 8.68 6.17 1.99-.74 1.11-9 2.74-10.39 1.62-1.38 9.5-.93 10.55-.93 1.06 0-4.85-7.62-4.48-9.74.37-2.12 7.87-5.49 7.5-7.6-.37-2.12-8.54-2.68-9.6-4.54-1.06-1.86 2.55-9.33.93-10.72-1.62-1.38-8.24 3.53-10.23 2.79C29.08 8.07 27.12 0 25 0s-4.08 8.07-6.07 8.81c-1.99.74-8.61-4.17-10.23-2.79-1.62 1.38 1.98 8.85.93 10.72-1.06 1.86-9.24 2.42-9.6 4.54-.37 2.12 7.13 5.49 7.5 7.6.37 2.12-5.54 9.74-4.48 9.74 1.06 0 8.93-.45 10.55.93 1.62 1.38.75 9.65 2.74 10.39 1.99.74 6.56-6.17 8.68-6.17h-.01z" fill="#2E89FF"/><path d="M25 15.12L15.41 24.34l2.86 2.73 4.68-4.53.005 12.36h4.14V22.54l4.7 4.53 2.8-2.73L25.08 15.12H25z" fill="black"/></g></g><g transform="translate(268, 376)"><g transform="translate(3, 3) scale(0.528)"><path d="M25 43.77c2.12 0 6.68 6.9 8.68 6.17 1.99-.74 1.11-9 2.74-10.39 1.62-1.38 9.5-.93 10.55-.93 1.06 0-4.85-7.62-4.48-9.74.37-2.12 7.87-5.49 7.5-7.6-.37-2.12-8.54-2.68-9.6-4.54-1.06-1.86 2.55-9.33.93-10.72-1.62-1.38-8.24 3.53-10.23 2.79C29.08 8.07 27.12 0 25 0s-4.08 8.07-6.07 8.81c-1.99.74-8.61-4.17-10.23-2.79-1.62 1.38 1.98 8.85.93 10.72-1.06 1.86-9.24 2.42-9.6 4.54-.37 2.12 7.13 5.49 7.5 7.6.37 2.12-5.54 9.74-4.48 9.74 1.06 0 8.93-.45 10.55.93 1.62 1.38.75 9.65 2.74 10.39 1.99.74 6.56-6.17 8.68-6.17h-.01z" fill="#8C68CF"/><path d="M25 15.12L15.41 24.34l2.86 2.73 4.68-4.53.005 12.36h4.14V22.54l4.7 4.53 2.8-2.73L25.08 15.12H25z" fill="black"/></g></g><g transform="translate(304, 376)"><g transform="translate(3, 3) scale(0.528)"><path d="M25 43.77c2.12 0 6.68 6.9 8.68 6.17 1.99-.74 1.11-9 2.74-10.39 1.62-1.38 9.5-.93 10.55-.93 1.06 0-4.85-7.62-4.48-9.74.37-2.12 7.87-5.49 7.5-7.6-.37-2.12-8.54-2.68-9.6-4.54-1.06-1.86 2.55-9.33.93-10.72-1.62-1.38-8.24 3.53-10.23 2.79C29.08 8.07 27.12 0 25 0s-4.08 8.07-6.07 8.81c-1.99.74-8.61-4.17-10.23-2.79-1.62 1.38 1.98 8.85.93 10.72-1.06 1.86-9.24 2.42-9.6 4.54-.37 2.12 7.13 5.49 7.5 7.6.37 2.12-5.54 9.74-4.48 9.74 1.06 0 8.93-.45 10.55.93 1.62 1.38.75 9.65 2.74 10.39 1.99.74 6.56-6.17 8.68-6.17h-.01z" fill="#03B414"/><path d="M25 15.12L15.41 24.34l2.86 2.73 4.68-4.53.005 12.36h4.14V22.54l4.7 4.53 2.8-2.73L25.08 15.12H25z" fill="black"/></g></g><g transform="translate(340, 376)"><g transform="translate(3, 3) scale(0.528)"><path d="M25 43.77c2.12 0 6.68 6.9 8.68 6.17 1.99-.74 1.11-9 2.74-10.39 1.62-1.38 9.5-.93 10.55-.93 1.06 0-4.85-7.62-4.48-9.74.37-2.12 7.87-5.49 7.5-7.6-.37-2.12-8.54-2.68-9.6-4.54-1.06-1.86 2.55-9.33.93-10.72-1.62-1.38-8.24 3.53-10.23 2.79C29.08 8.07 27.12 0 25 0s-4.08 8.07-6.07 8.81c-1.99.74-8.61-4.17-10.23-2.79-1.62 1.38 1.98 8.85.93 10.72-1.06 1.86-9.24 2.42-9.6 4.54-.37 2.12 7.13 5.49 7.5 7.6.37 2.12-5.54 9.74-4.48 9.74 1.06 0 8.93-.45 10.55.93 1.62 1.38.75 9.65 2.74 10.39 1.99.74 6.56-6.17 8.68-6.17h-.01z" fill="#65FF85"/><path d="M25 15.12L15.41 24.34l2.86 2.73 4.68-4.53.005 12.36h4.14V22.54l4.7 4.53 2.8-2.73L25.08 15.12H25z" fill="black"/></g></g><g transform="translate(376, 376)"><g transform="translate(3, 3) scale(0.528)"><path d="M25 43.77c2.12 0 6.68 6.9 8.68 6.17 1.99-.74 1.11-9 2.74-10.39 1.62-1.38 9.5-.93 10.55-.93 1.06 0-4.85-7.62-4.48-9.74.37-2.12 7.87-5.49 7.5-7.6-.37-2.12-8.54-2.68-9.6-4.54-1.06-1.86 2.55-9.33.93-10.72-1.62-1.38-8.24 3.53-10.23 2.79C29.08 8.07 27.12 0 25 0s-4.08 8.07-6.07 8.81c-1.99.74-8.61-4.17-10.23-2.79-1.62 1.38 1.98 8.85.93 10.72-1.06 1.86-9.24 2.42-9.6 4.54-.37 2.12 7.13 5.49 7.5 7.6.37 2.12-5.54 9.74-4.48 9.74 1.06 0 8.93-.45 10.55.93 1.62 1.38.75 9.65 2.74 10.39 1.99.74 6.56-6.17 8.68-6.17h-.01z" fill="#FFD800"/><path d="M25 15.12L15.41 24.34l2.86 2.73 4.68-4.53.005 12.36h4.14V22.54l4.7 4.53 2.8-2.73L25.08 15.12H25z" fill="black"/></g></g><g transform="translate(412, 376)"><g transform="translate(3, 3) scale(0.528)"><path d="M25 43.77c2.12 0 6.68 6.9 8.68 6.17 1.99-.74 1.11-9 2.74-10.39 1.62-1.38 9.5-.93 10.55-.93 1.06 0-4.85-7.62-4.48-9.74.37-2.12 7.87-5.49 7.5-7.6-.37-2.12-8.54-2.68-9.6-4.54-1.06-1.86 2.55-9.33.93-10.72-1.62-1.38-8.24 3.53-10.23 2.79C29.08 8.07 27.12 0 25 0s-4.08 8.07-6.07 8.81c-1.99.74-8.61-4.17-10.23-2.79-1.62 1.38 1.98 8.85.93 10.72-1.06 1.86-9.24 2.42-9.6 4.54-.37 2.12 7.13 5.49 7.5 7.6.37 2.12-5.54 9.74-4.48 9.74 1.06 0 8.93-.45 10.55.93 1.62 1.38.75 9.65 2.74 10.39 1.99.74 6.56-6.17 8.68-6.17h-.01z" fill="#C5FF25"/><path d="M25 15.12L15.41 24.34l2.86 2.73 4.68-4.53.005 12.36h4.14V22.54l4.7 4.53 2.8-2.73L25.08 15.12H25z" fill="black"/></g></g><g transform="translate(448, 376)"><g transform="translate(3, 3) scale(0.528)"><path d="M25 43.77c2.12 0 6.68 6.9 8.68 6.17 1.99-.74 1.11-9 2.74-10.39 1.62-1.38 9.5-.93 10.55-.93 1.06 0-4.85-7.62-4.48-9.74.37-2.12 7.87-5.49 7.5-7.6-.37-2.12-8.54-2.68-9.6-4.54-1.06-1.86 2.55-9.33.93-10.72-1.62-1.38-8.24 3.53-10.23 2.79C29.08 8.07 27.12 0 25 0s-4.08 8.07-6.07 8.81c-1.99.74-8.61-4.17-10.23-2.79-1.62 1.38 1.98 8.85.93 10.72-1.06 1.86-9.24 2.42-9.6 4.54-.37 2.12 7.13 5.49 7.5 7.6.37 2.12-5.54 9.74-4.48 9.74 1.06 0 8.93-.45 10.55.93 1.62 1.38.75 9.65 2.74 10.39 1.99.74 6.56-6.17 8.68-6.17h-.01z" fill="#4C1A9E"/><path d="M25 15.12L15.41 24.34l2.86 2.73 4.68-4.53.005 12.36h4.14V22.54l4.7 4.53 2.8-2.73L25.08 15.12H25z" fill="black"/></g></g><g transform="translate(196, 412)"><g transform="translate(3, 3) scale(0.528)"><path d="M25 43.77c2.12 0 6.68 6.9 8.68 6.17 1.99-.74 1.11-9 2.74-10.39 1.62-1.38 9.5-.93 10.55-.93 1.06 0-4.85-7.62-4.48-9.74.37-2.12 7.87-5.49 7.5-7.6-.37-2.12-8.54-2.68-9.6-4.54-1.06-1.86 2.55-9.33.93-10.72-1.62-1.38-8.24 3.53-10.23 2.79C29.08 8.07 27.12 0 25 0s-4.08 8.07-6.07 8.81c-1.99.74-8.61-4.17-10.23-2.79-1.62 1.38 1.98 8.85.93 10.72-1.06 1.86-9.24 2.42-9.6 4.54-.37 2.12 7.13 5.49 7.5 7.6.37 2.12-5.54 9.74-4.48 9.74 1.06 0 8.93-.45 10.55.93 1.62 1.38.75 9.65 2.74 10.39 1.99.74 6.56-6.17 8.68-6.17h-.01z" fill="#5B28BC"/><path d="M25 15.12L15.41 24.34l2.86 2.73 4.68-4.53.005 12.36h4.14V22.54l4.7 4.53 2.8-2.73L25.08 15.12H25z" fill="black"/></g></g><g transform="translate(232, 412)"><g transform="translate(3, 3) scale(0.528)"><path d="M25 43.77c2.12 0 6.68 6.9 8.68 6.17 1.99-.74 1.11-9 2.74-10.39 1.62-1.38 9.5-.93 10.55-.93 1.06 0-4.85-7.62-4.48-9.74.37-2.12 7.87-5.49 7.5-7.6-.37-2.12-8.54-2.68-9.6-4.54-1.06-1.86 2.55-9.33.93-10.72-1.62-1.38-8.24 3.53-10.23 2.79C29.08 8.07 27.12 0 25 0s-4.08 8.07-6.07 8.81c-1.99.74-8.61-4.17-10.23-2.79-1.62 1.38 1.98 8.85.93 10.72-1.06 1.86-9.24 2.42-9.6 4.54-.37 2.12 7.13 5.49 7.5 7.6.37 2.12-5.54 9.74-4.48 9.74 1.06 0 8.93-.45 10.55.93 1.62 1.38.75 9.65 2.74 10.39 1.99.74 6.56-6.17 8.68-6.17h-.01z" fill="#E77AFF"/><path d="M25 15.12L15.41 24.34l2.86 2.73 4.68-4.53.005 12.36h4.14V22.54l4.7 4.53 2.8-2.73L25.08 15.12H25z" fill="black"/></g></g><g transform="translate(268, 412)"><g transform="translate(3, 3) scale(0.528)"><path d="M25 43.77c2.12 0 6.68 6.9 8.68 6.17 1.99-.74 1.11-9 2.74-10.39 1.62-1.38 9.5-.93 10.55-.93 1.06 0-4.85-7.62-4.48-9.74.37-2.12 7.87-5.49 7.5-7.6-.37-2.12-8.54-2.68-9.6-4.54-1.06-1.86 2.55-9.33.93-10.72-1.62-1.38-8.24 3.53-10.23 2.79C29.08 8.07 27.12 0 25 0s-4.08 8.07-6.07 8.81c-1.99.74-8.61-4.17-10.23-2.79-1.62 1.38 1.98 8.85.93 10.72-1.06 1.86-9.24 2.42-9.6 4.54-.37 2.12 7.13 5.49 7.5 7.6.37 2.12-5.54 9.74-4.48 9.74 1.06 0 8.93-.45 10.55.93 1.62 1.38.75 9.65 2.74 10.39 1.99.74 6.56-6.17 8.68-6.17h-.01z" fill="#7B45F9"/><path d="M25 15.12L15.41 24.34l2.86 2.73 4.68-4.53.005 12.36h4.14V22.54l4.7 4.53 2.8-2.73L25.08 15.12H25z" fill="black"/></g></g><g transform="translate(304, 412)"><g transform="translate(3, 3) scale(0.528)"><path d="M25 43.77c2.12 0 6.68 6.9 8.68 6.17 1.99-.74 1.11-9 2.74-10.39 1.62-1.38 9.5-.93 10.55-.93 1.06 0-4.85-7.62-4.48-9.74.37-2.12 7.87-5.49 7.5-7.6-.37-2.12-8.54-2.68-9.6-4.54-1.06-1.86 2.55-9.33.93-10.72-1.62-1.38-8.24 3.53-10.23 2.79C29.08 8.07 27.12 0 25 0s-4.08 8.07-6.07 8.81c-1.99.74-8.61-4.17-10.23-2.79-1.62 1.38 1.98 8.85.93 10.72-1.06 1.86-9.24 2.42-9.6 4.54-.37 2.12 7.13 5.49 7.5 7.6.37 2.12-5.54 9.74-4.48 9.74 1.06 0 8.93-.45 10.55.93 1.62 1.38.75 9.65 2.74 10.39 1.99.74 6.56-6.17 8.68-6.17h-.01z" fill="#7D47B7"/><path d="M25 15.12L15.41 24.34l2.86 2.73 4.68-4.53.005 12.36h4.14V22.54l4.7 4.53 2.8-2.73L25.08 15.12H25z" fill="black"/></g></g><g transform="translate(340, 412)"><g transform="translate(3, 3) scale(0.528)"><path d="M25 43.77c2.12 0 6.68 6.9 8.68 6.17 1.99-.74 1.11-9 2.74-10.39 1.62-1.38 9.5-.93 10.55-.93 1.06 0-4.85-7.62-4.48-9.74.37-2.12 7.87-5.49 7.5-7.6-.37-2.12-8.54-2.68-9.6-4.54-1.06-1.86 2.55-9.33.93-10.72-1.62-1.38-8.24 3.53-10.23 2.79C29.08 8.07 27.12 0 25 0s-4.08 8.07-6.07 8.81c-1.99.74-8.61-4.17-10.23-2.79-1.62 1.38 1.98 8.85.93 10.72-1.06 1.86-9.24 2.42-9.6 4.54-.37 2.12 7.13 5.49 7.5 7.6.37 2.12-5.54 9.74-4.48 9.74 1.06 0 8.93-.45 10.55.93 1.62 1.38.75 9.65 2.74 10.39 1.99.74 6.56-6.17 8.68-6.17h-.01z" fill="#FFBC00"/><path d="M25 15.12L15.41 24.34l2.86 2.73 4.68-4.53.005 12.36h4.14V22.54l4.7 4.53 2.8-2.73L25.08 15.12H25z" fill="black"/></g></g><g transform="translate(376, 412)"><g transform="translate(3, 3) scale(0.528)"><path d="M25 43.77c2.12 0 6.68 6.9 8.68 6.17 1.99-.74 1.11-9 2.74-10.39 1.62-1.38 9.5-.93 10.55-.93 1.06 0-4.85-7.62-4.48-9.74.37-2.12 7.87-5.49 7.5-7.6-.37-2.12-8.54-2.68-9.6-4.54-1.06-1.86 2.55-9.33.93-10.72-1.62-1.38-8.24 3.53-10.23 2.79C29.08 8.07 27.12 0 25 0s-4.08 8.07-6.07 8.81c-1.99.74-8.61-4.17-10.23-2.79-1.62 1.38 1.98 8.85.93 10.72-1.06 1.86-9.24 2.42-9.6 4.54-.37 2.12 7.13 5.49 7.5 7.6.37 2.12-5.54 9.74-4.48 9.74 1.06 0 8.93-.45 10.55.93 1.62 1.38.75 9.65 2.74 10.39 1.99.74 6.56-6.17 8.68-6.17h-.01z" fill="#25FF45"/><path d="M25 15.12L15.41 24.34l2.86 2.73 4.68-4.53.005 12.36h4.14V22.54l4.7 4.53 2.8-2.73L25.08 15.12H25z" fill="black"/></g></g><g transform="translate(412, 412)"><g transform="translate(3, 3) scale(0.528)"><path d="M25 43.77c2.12 0 6.68 6.9 8.68 6.17 1.99-.74 1.11-9 2.74-10.39 1.62-1.38 9.5-.93 10.55-.93 1.06 0-4.85-7.62-4.48-9.74.37-2.12 7.87-5.49 7.5-7.6-.37-2.12-8.54-2.68-9.6-4.54-1.06-1.86 2.55-9.33.93-10.72-1.62-1.38-8.24 3.53-10.23 2.79C29.08 8.07 27.12 0 25 0s-4.08 8.07-6.07 8.81c-1.99.74-8.61-4.17-10.23-2.79-1.62 1.38 1.98 8.85.93 10.72-1.06 1.86-9.24 2.42-9.6 4.54-.37 2.12 7.13 5.49 7.5 7.6.37 2.12-5.54 9.74-4.48 9.74 1.06 0 8.93-.45 10.55.93 1.62 1.38.75 9.65 2.74 10.39 1.99.74 6.56-6.17 8.68-6.17h-.01z" fill="#F23ED1"/><path d="M25 15.12L15.41 24.34l2.86 2.73 4.68-4.53.005 12.36h4.14V22.54l4.7 4.53 2.8-2.73L25.08 15.12H25z" fill="black"/></g></g><g transform="translate(448, 412)"><g transform="translate(3, 3) scale(0.528)"><path d="M25 43.77c2.12 0 6.68 6.9 8.68 6.17 1.99-.74 1.11-9 2.74-10.39 1.62-1.38 9.5-.93 10.55-.93 1.06 0-4.85-7.62-4.48-9.74.37-2.12 7.87-5.49 7.5-7.6-.37-2.12-8.54-2.68-9.6-4.54-1.06-1.86 2.55-9.33.93-10.72-1.62-1.38-8.24 3.53-10.23 2.79C29.08 8.07 27.12 0 25 0s-4.08 8.07-6.07 8.81c-1.99.74-8.61-4.17-10.23-2.79-1.62 1.38 1.98 8.85.93 10.72-1.06 1.86-9.24 2.42-9.6 4.54-.37 2.12 7.13 5.49 7.5 7.6.37 2.12-5.54 9.74-4.48 9.74 1.06 0 8.93-.45 10.55.93 1.62 1.38.75 9.65 2.74 10.39 1.99.74 6.56-6.17 8.68-6.17h-.01z" fill="#7A0F33"/><path d="M25 15.12L15.41 24.34l2.86 2.73 4.68-4.53.005 12.36h4.14V22.54l4.7 4.53 2.8-2.73L25.08 15.12H25z" fill="black"/></g></g><g transform="translate(196, 448)"><g transform="translate(3, 3) scale(0.528)"><path d="M25 43.77c2.12 0 6.68 6.9 8.68 6.17 1.99-.74 1.11-9 2.74-10.39 1.62-1.38 9.5-.93 10.55-.93 1.06 0-4.85-7.62-4.48-9.74.37-2.12 7.87-5.49 7.5-7.6-.37-2.12-8.54-2.68-9.6-4.54-1.06-1.86 2.55-9.33.93-10.72-1.62-1.38-8.24 3.53-10.23 2.79C29.08 8.07 27.12 0 25 0s-4.08 8.07-6.07 8.81c-1.99.74-8.61-4.17-10.23-2.79-1.62 1.38 1.98 8.85.93 10.72-1.06 1.86-9.24 2.42-9.6 4.54-.37 2.12 7.13 5.49 7.5 7.6.37 2.12-5.54 9.74-4.48 9.74 1.06 0 8.93-.45 10.55.93 1.62 1.38.75 9.65 2.74 10.39 1.99.74 6.56-6.17 8.68-6.17h-.01z" fill="#AD1E72"/><path d="M25 15.12L15.41 24.34l2.86 2.73 4.68-4.53.005 12.36h4.14V22.54l4.7 4.53 2.8-2.73L25.08 15.12H25z" fill="black"/></g></g><g transform="translate(232, 448)"><g transform="translate(3, 3) scale(0.528)"><path d="M25 43.77c2.12 0 6.68 6.9 8.68 6.17 1.99-.74 1.11-9 2.74-10.39 1.62-1.38 9.5-.93 10.55-.93 1.06 0-4.85-7.62-4.48-9.74.37-2.12 7.87-5.49 7.5-7.6-.37-2.12-8.54-2.68-9.6-4.54-1.06-1.86 2.55-9.33.93-10.72-1.62-1.38-8.24 3.53-10.23 2.79C29.08 8.07 27.12 0 25 0s-4.08 8.07-6.07 8.81c-1.99.74-8.61-4.17-10.23-2.79-1.62 1.38 1.98 8.85.93 10.72-1.06 1.86-9.24 2.42-9.6 4.54-.37 2.12 7.13 5.49 7.5 7.6.37 2.12-5.54 9.74-4.48 9.74 1.06 0 8.93-.45 10.55.93 1.62 1.38.75 9.65 2.74 10.39 1.99.74 6.56-6.17 8.68-6.17h-.01z" fill="#CF289C"/><path d="M25 15.12L15.41 24.34l2.86 2.73 4.68-4.53.005 12.36h4.14V22.54l4.7 4.53 2.8-2.73L25.08 15.12H25z" fill="black"/></g></g><g transform="translate(268, 448)"><g transform="translate(3, 3) scale(0.528)"><path d="M25 43.77c2.12 0 6.68 6.9 8.68 6.17 1.99-.74 1.11-9 2.74-10.39 1.62-1.38 9.5-.93 10.55-.93 1.06 0-4.85-7.62-4.48-9.74.37-2.12 7.87-5.49 7.5-7.6-.37-2.12-8.54-2.68-9.6-4.54-1.06-1.86 2.55-9.33.93-10.72-1.62-1.38-8.24 3.53-10.23 2.79C29.08 8.07 27.12 0 25 0s-4.08 8.07-6.07 8.81c-1.99.74-8.61-4.17-10.23-2.79-1.62 1.38 1.98 8.85.93 10.72-1.06 1.86-9.24 2.42-9.6 4.54-.37 2.12 7.13 5.49 7.5 7.6.37 2.12-5.54 9.74-4.48 9.74 1.06 0 8.93-.45 10.55.93 1.62 1.38.75 9.65 2.74 10.39 1.99.74 6.56-6.17 8.68-6.17h-.01z" fill="#2E89FF"/><path d="M25 15.12L15.41 24.34l2.86 2.73 4.68-4.53.005 12.36h4.14V22.54l4.7 4.53 2.8-2.73L25.08 15.12H25z" fill="black"/></g></g><g transform="translate(304, 448)"><g transform="translate(3, 3) scale(0.528)"><path d="M25 43.77c2.12 0 6.68 6.9 8.68 6.17 1.99-.74 1.11-9 2.74-10.39 1.62-1.38 9.5-.93 10.55-.93 1.06 0-4.85-7.62-4.48-9.74.37-2.12 7.87-5.49 7.5-7.6-.37-2.12-8.54-2.68-9.6-4.54-1.06-1.86 2.55-9.33.93-10.72-1.62-1.38-8.24 3.53-10.23 2.79C29.08 8.07 27.12 0 25 0s-4.08 8.07-6.07 8.81c-1.99.74-8.61-4.17-10.23-2.79-1.62 1.38 1.98 8.85.93 10.72-1.06 1.86-9.24 2.42-9.6 4.54-.37 2.12 7.13 5.49 7.5 7.6.37 2.12-5.54 9.74-4.48 9.74 1.06 0 8.93-.45 10.55.93 1.62 1.38.75 9.65 2.74 10.39 1.99.74 6.56-6.17 8.68-6.17h-.01z" fill="#0A4BF1"/><path d="M25 15.12L15.41 24.34l2.86 2.73 4.68-4.53.005 12.36h4.14V22.54l4.7 4.53 2.8-2.73L25.08 15.12H25z" fill="black"/></g></g><g transform="translate(340, 448)"><g transform="translate(3, 3) scale(0.528)"><path d="M25 43.77c2.12 0 6.68 6.9 8.68 6.17 1.99-.74 1.11-9 2.74-10.39 1.62-1.38 9.5-.93 10.55-.93 1.06 0-4.85-7.62-4.48-9.74.37-2.12 7.87-5.49 7.5-7.6-.37-2.12-8.54-2.68-9.6-4.54-1.06-1.86 2.55-9.33.93-10.72-1.62-1.38-8.24 3.53-10.23 2.79C29.08 8.07 27.12 0 25 0s-4.08 8.07-6.07 8.81c-1.99.74-8.61-4.17-10.23-2.79-1.62 1.38 1.98 8.85.93 10.72-1.06 1.86-9.24 2.42-9.6 4.54-.37 2.12 7.13 5.49 7.5 7.6.37 2.12-5.54 9.74-4.48 9.74 1.06 0 8.93-.45 10.55.93 1.62 1.38.75 9.65 2.74 10.39 1.99.74 6.56-6.17 8.68-6.17h-.01z" fill="#9B89E7"/><path d="M25 15.12L15.41 24.34l2.86 2.73 4.68-4.53.005 12.36h4.14V22.54l4.7 4.53 2.8-2.73L25.08 15.12H25z" fill="black"/></g></g><g transform="translate(376, 448)"><g transform="translate(3, 3) scale(0.528)"><path d="M25 43.77c2.12 0 6.68 6.9 8.68 6.17 1.99-.74 1.11-9 2.74-10.39 1.62-1.38 9.5-.93 10.55-.93 1.06 0-4.85-7.62-4.48-9.74.37-2.12 7.87-5.49 7.5-7.6-.37-2.12-8.54-2.68-9.6-4.54-1.06-1.86 2.55-9.33.93-10.72-1.62-1.38-8.24 3.53-10.23 2.79C29.08 8.07 27.12 0 25 0s-4.08 8.07-6.07 8.81c-1.99.74-8.61-4.17-10.23-2.79-1.62 1.38 1.98 8.85.93 10.72-1.06 1.86-9.24 2.42-9.6 4.54-.37 2.12 7.13 5.49 7.5 7.6.37 2.12-5.54 9.74-4.48 9.74 1.06 0 8.93-.45 10.55.93 1.62 1.38.75 9.65 2.74 10.39 1.99.74 6.56-6.17 8.68-6.17h-.01z" fill="#6B36DB"/><path d="M25 15.12L15.41 24.34l2.86 2.73 4.68-4.53.005 12.36h4.14V22.54l4.7 4.53 2.8-2.73L25.08 15.12H25z" fill="black"/></g></g><g transform="translate(412, 448)"><g transform="translate(3, 3) scale(0.528)"><path d="M25 43.77c2.12 0 6.68 6.9 8.68 6.17 1.99-.74 1.11-9 2.74-10.39 1.62-1.38 9.5-.93 10.55-.93 1.06 0-4.85-7.62-4.48-9.74.37-2.12 7.87-5.49 7.5-7.6-.37-2.12-8.54-2.68-9.6-4.54-1.06-1.86 2.55-9.33.93-10.72-1.62-1.38-8.24 3.53-10.23 2.79C29.08 8.07 27.12 0 25 0s-4.08 8.07-6.07 8.81c-1.99.74-8.61-4.17-10.23-2.79-1.62 1.38 1.98 8.85.93 10.72-1.06 1.86-9.24 2.42-9.6 4.54-.37 2.12 7.13 5.49 7.5 7.6.37 2.12-5.54 9.74-4.48 9.74 1.06 0 8.93-.45 10.55.93 1.62 1.38.75 9.65 2.74 10.39 1.99.74 6.56-6.17 8.68-6.17h-.01z" fill="#F34ADC"/><path d="M25 15.12L15.41 24.34l2.86 2.73 4.68-4.53.005 12.36h4.14V22.54l4.7 4.53 2.8-2.73L25.08 15.12H25z" fill="black"/></g></g><g transform="translate(448, 448)"><g transform="translate(3, 3) scale(0.528)"><path d="M25 43.77c2.12 0 6.68 6.9 8.68 6.17 1.99-.74 1.11-9 2.74-10.39 1.62-1.38 9.5-.93 10.55-.93 1.06 0-4.85-7.62-4.48-9.74.37-2.12 7.87-5.49 7.5-7.6-.37-2.12-8.54-2.68-9.6-4.54-1.06-1.86 2.55-9.33.93-10.72-1.62-1.38-8.24 3.53-10.23 2.79C29.08 8.07 27.12 0 25 0s-4.08 8.07-6.07 8.81c-1.99.74-8.61-4.17-10.23-2.79-1.62 1.38 1.98 8.85.93 10.72-1.06 1.86-9.24 2.42-9.6 4.54-.37 2.12 7.13 5.49 7.5 7.6.37 2.12-5.54 9.74-4.48 9.74 1.06 0 8.93-.45 10.55.93 1.62 1.38.75 9.65 2.74 10.39 1.99.74 6.56-6.17 8.68-6.17h-.01z" fill="#4C1A9E"/><path d="M25 15.12L15.41 24.34l2.86 2.73 4.68-4.53.005 12.36h4.14V22.54l4.7 4.53 2.8-2.73L25.08 15.12H25z" fill="black"/></g></g><g transform="translate(196, 484)"><g transform="translate(3, 3) scale(0.528)"><path d="M25 43.77c2.12 0 6.68 6.9 8.68 6.17 1.99-.74 1.11-9 2.74-10.39 1.62-1.38 9.5-.93 10.55-.93 1.06 0-4.85-7.62-4.48-9.74.37-2.12 7.87-5.49 7.5-7.6-.37-2.12-8.54-2.68-9.6-4.54-1.06-1.86 2.55-9.33.93-10.72-1.62-1.38-8.24 3.53-10.23 2.79C29.08 8.07 27.12 0 25 0s-4.08 8.07-6.07 8.81c-1.99.74-8.61-4.17-10.23-2.79-1.62 1.38 1.98 8.85.93 10.72-1.06 1.86-9.24 2.42-9.6 4.54-.37 2.12 7.13 5.49 7.5 7.6.37 2.12-5.54 9.74-4.48 9.74 1.06 0 8.93-.45 10.55.93 1.62 1.38.75 9.65 2.74 10.39 1.99.74 6.56-6.17 8.68-6.17h-.01z" fill="#F23ED1"/><path d="M25 15.12L15.41 24.34l2.86 2.73 4.68-4.53.005 12.36h4.14V22.54l4.7 4.53 2.8-2.73L25.08 15.12H25z" fill="black"/></g></g><g transform="translate(232, 484)"><g transform="translate(3, 3) scale(0.528)"><path d="M25 43.77c2.12 0 6.68 6.9 8.68 6.17 1.99-.74 1.11-9 2.74-10.39 1.62-1.38 9.5-.93 10.55-.93 1.06 0-4.85-7.62-4.48-9.74.37-2.12 7.87-5.49 7.5-7.6-.37-2.12-8.54-2.68-9.6-4.54-1.06-1.86 2.55-9.33.93-10.72-1.62-1.38-8.24 3.53-10.23 2.79C29.08 8.07 27.12 0 25 0s-4.08 8.07-6.07 8.81c-1.99.74-8.61-4.17-10.23-2.79-1.62 1.38 1.98 8.85.93 10.72-1.06 1.86-9.24 2.42-9.6 4.54-.37 2.12 7.13 5.49 7.5 7.6.37 2.12-5.54 9.74-4.48 9.74 1.06 0 8.93-.45 10.55.93 1.62 1.38.75 9.65 2.74 10.39 1.99.74 6.56-6.17 8.68-6.17h-.01z" fill="#E77AFF"/><path d="M25 15.12L15.41 24.34l2.86 2.73 4.68-4.53.005 12.36h4.14V22.54l4.7 4.53 2.8-2.73L25.08 15.12H25z" fill="black"/></g></g><g transform="translate(268, 484)"><g transform="translate(3, 3) scale(0.528)"><path d="M25 43.77c2.12 0 6.68 6.9 8.68 6.17 1.99-.74 1.11-9 2.74-10.39 1.62-1.38 9.5-.93 10.55-.93 1.06 0-4.85-7.62-4.48-9.74.37-2.12 7.87-5.49 7.5-7.6-.37-2.12-8.54-2.68-9.6-4.54-1.06-1.86 2.55-9.33.93-10.72-1.62-1.38-8.24 3.53-10.23 2.79C29.08 8.07 27.12 0 25 0s-4.08 8.07-6.07 8.81c-1.99.74-8.61-4.17-10.23-2.79-1.62 1.38 1.98 8.85.93 10.72-1.06 1.86-9.24 2.42-9.6 4.54-.37 2.12 7.13 5.49 7.5 7.6.37 2.12-5.54 9.74-4.48 9.74 1.06 0 8.93-.45 10.55.93 1.62 1.38.75 9.65 2.74 10.39 1.99.74 6.56-6.17 8.68-6.17h-.01z" fill="#690A1E"/><path d="M25 15.12L15.41 24.34l2.86 2.73 4.68-4.53.005 12.36h4.14V22.54l4.7 4.53 2.8-2.73L25.08 15.12H25z" fill="black"/></g></g><g transform="translate(304, 484)"><g transform="translate(3, 3) scale(0.528)"><path d="M25 43.77c2.12 0 6.68 6.9 8.68 6.17 1.99-.74 1.11-9 2.74-10.39 1.62-1.38 9.5-.93 10.55-.93 1.06 0-4.85-7.62-4.48-9.74.37-2.12 7.87-5.49 7.5-7.6-.37-2.12-8.54-2.68-9.6-4.54-1.06-1.86 2.55-9.33.93-10.72-1.62-1.38-8.24 3.53-10.23 2.79C29.08 8.07 27.12 0 25 0s-4.08 8.07-6.07 8.81c-1.99.74-8.61-4.17-10.23-2.79-1.62 1.38 1.98 8.85.93 10.72-1.06 1.86-9.24 2.42-9.6 4.54-.37 2.12 7.13 5.49 7.5 7.6.37 2.12-5.54 9.74-4.48 9.74 1.06 0 8.93-.45 10.55.93 1.62 1.38.75 9.65 2.74 10.39 1.99.74 6.56-6.17 8.68-6.17h-.01z" fill="#0A4BF1"/><path d="M25 15.12L15.41 24.34l2.86 2.73 4.68-4.53.005 12.36h4.14V22.54l4.7 4.53 2.8-2.73L25.08 15.12H25z" fill="black"/></g></g><g transform="translate(340, 484)"><g transform="translate(3, 3) scale(0.528)"><path d="M25 43.77c2.12 0 6.68 6.9 8.68 6.17 1.99-.74 1.11-9 2.74-10.39 1.62-1.38 9.5-.93 10.55-.93 1.06 0-4.85-7.62-4.48-9.74.37-2.12 7.87-5.49 7.5-7.6-.37-2.12-8.54-2.68-9.6-4.54-1.06-1.86 2.55-9.33.93-10.72-1.62-1.38-8.24 3.53-10.23 2.79C29.08 8.07 27.12 0 25 0s-4.08 8.07-6.07 8.81c-1.99.74-8.61-4.17-10.23-2.79-1.62 1.38 1.98 8.85.93 10.72-1.06 1.86-9.24 2.42-9.6 4.54-.37 2.12 7.13 5.49 7.5 7.6.37 2.12-5.54 9.74-4.48 9.74 1.06 0 8.93-.45 10.55.93 1.62 1.38.75 9.65 2.74 10.39 1.99.74 6.56-6.17 8.68-6.17h-.01z" fill="#E02DB1"/><path d="M25 15.12L15.41 24.34l2.86 2.73 4.68-4.53.005 12.36h4.14V22.54l4.7 4.53 2.8-2.73L25.08 15.12H25z" fill="black"/></g></g><g transform="translate(376, 484)"><g transform="translate(3, 3) scale(0.528)"><path d="M25 43.77c2.12 0 6.68 6.9 8.68 6.17 1.99-.74 1.11-9 2.74-10.39 1.62-1.38 9.5-.93 10.55-.93 1.06 0-4.85-7.62-4.48-9.74.37-2.12 7.87-5.49 7.5-7.6-.37-2.12-8.54-2.68-9.6-4.54-1.06-1.86 2.55-9.33.93-10.72-1.62-1.38-8.24 3.53-10.23 2.79C29.08 8.07 27.12 0 25 0s-4.08 8.07-6.07 8.81c-1.99.74-8.61-4.17-10.23-2.79-1.62 1.38 1.98 8.85.93 10.72-1.06 1.86-9.24 2.42-9.6 4.54-.37 2.12 7.13 5.49 7.5 7.6.37 2.12-5.54 9.74-4.48 9.74 1.06 0 8.93-.45 10.55.93 1.62 1.38.75 9.65 2.74 10.39 1.99.74 6.56-6.17 8.68-6.17h-.01z" fill="#F23ED1"/><path d="M25 15.12L15.41 24.34l2.86 2.73 4.68-4.53.005 12.36h4.14V22.54l4.7 4.53 2.8-2.73L25.08 15.12H25z" fill="black"/></g></g><g transform="translate(412, 484)"><g transform="translate(3, 3) scale(0.528)"><path d="M25 43.77c2.12 0 6.68 6.9 8.68 6.17 1.99-.74 1.11-9 2.74-10.39 1.62-1.38 9.5-.93 10.55-.93 1.06 0-4.85-7.62-4.48-9.74.37-2.12 7.87-5.49 7.5-7.6-.37-2.12-8.54-2.68-9.6-4.54-1.06-1.86 2.55-9.33.93-10.72-1.62-1.38-8.24 3.53-10.23 2.79C29.08 8.07 27.12 0 25 0s-4.08 8.07-6.07 8.81c-1.99.74-8.61-4.17-10.23-2.79-1.62 1.38 1.98 8.85.93 10.72-1.06 1.86-9.24 2.42-9.6 4.54-.37 2.12 7.13 5.49 7.5 7.6.37 2.12-5.54 9.74-4.48 9.74 1.06 0 8.93-.45 10.55.93 1.62 1.38.75 9.65 2.74 10.39 1.99.74 6.56-6.17 8.68-6.17h-.01z" fill="#7D47B7"/><path d="M25 15.12L15.41 24.34l2.86 2.73 4.68-4.53.005 12.36h4.14V22.54l4.7 4.53 2.8-2.73L25.08 15.12H25z" fill="black"/></g></g><g transform="translate(448, 484)"><g transform="translate(3, 3) scale(0.528)"><path d="M25 43.77c2.12 0 6.68 6.9 8.68 6.17 1.99-.74 1.11-9 2.74-10.39 1.62-1.38 9.5-.93 10.55-.93 1.06 0-4.85-7.62-4.48-9.74.37-2.12 7.87-5.49 7.5-7.6-.37-2.12-8.54-2.68-9.6-4.54-1.06-1.86 2.55-9.33.93-10.72-1.62-1.38-8.24 3.53-10.23 2.79C29.08 8.07 27.12 0 25 0s-4.08 8.07-6.07 8.81c-1.99.74-8.61-4.17-10.23-2.79-1.62 1.38 1.98 8.85.93 10.72-1.06 1.86-9.24 2.42-9.6 4.54-.37 2.12 7.13 5.49 7.5 7.6.37 2.12-5.54 9.74-4.48 9.74 1.06 0 8.93-.45 10.55.93 1.62 1.38.75 9.65 2.74 10.39 1.99.74 6.56-6.17 8.68-6.17h-.01z" fill="#E5FF05"/><path d="M25 15.12L15.41 24.34l2.86 2.73 4.68-4.53.005 12.36h4.14V22.54l4.7 4.53 2.8-2.73L25.08 15.12H25z" fill="black"/></g></g></svg>